M48
;DRILL file {KiCad (5.0.0)} date 09/19/18 11:53:04
;FORMAT={2:4/ absolute / inch / suppress trailing zeros}
FMAT,2
INCH,LZ
T1C0.0130
T2C0.0394
T3C0.1969
%
G90
G05
M72
T1
X04509Y-047435
X045225Y-03349
X04629Y-03831
X046361Y-042693
X046791Y-053799
X046791Y-053799
X049381Y-038903
X049541Y-051333
X051701Y-035213
X05255Y-03628
X053Y-051392
X053Y-051892
X053Y-052392
X0535Y-051392
X0535Y-051892
X0535Y-052392
X05398Y-04688
X054Y-051392
X054Y-051892
X054Y-052392
X05457Y-04588
X05465Y-03628
X054882Y-053504
X057041Y-033923
X057697Y-039902
X057894Y-042008
X057894Y-043346
X05835Y-046515
X05845Y-045625
X05976Y-045145
X06032Y-03907
X060435Y-04261
X06053Y-03852
X06137Y-046531
X061575Y-04589
X06185Y-053504
X06188Y-043005
X06227Y-043794
X06235Y-041885
X06262Y-044125
X062635Y-036505
X06265Y-04242
X06279Y-03985
X063Y-051392
X063Y-051892
X063Y-052392
X06304Y-04518
X063205Y-041225
X063305Y-039175
X0635Y-051392
X0635Y-051892
X0635Y-052392
X06353Y-04043
X063575Y-04256
X06364Y-04377
X064Y-051392
X064Y-051892
X064Y-052392
X064365Y-045215
X064921Y-034663
X06505Y-03895
X06506Y-04164
X065138Y-040709
X065276Y-039961
X065354Y-039429
X06555Y-0414
X065571Y-050433
X06619Y-043145
X066575Y-040177
X0666Y-0417
X066931Y-050943
X067295Y-042025
X06781Y-042805
X067953Y-033898
X068465Y-034331
X068731Y-038513
X069606Y-038189
X069905Y-03201
X070882Y-042976
X071024Y-051617
X07134Y-03834
X0717Y-0391
X072047Y-034488
X07207Y-042705
X072105Y-041615
X07226Y-04311
X072303Y-045886
X07238Y-03377
X072402Y-041299
X072579Y-050846
X073051Y-04626
X073065Y-036375
X073091Y-051594
X074094Y-042205
T2
X071635Y-052748
X071635Y-053748
X072735Y-052748
X072735Y-053748
X071635Y-031673
X071635Y-032673
X072735Y-031673
X072735Y-032673
X044076Y-031673
X044076Y-032673
X045176Y-031673
X045176Y-032673
X044076Y-052748
X044076Y-053748
X045176Y-052748
X045176Y-053748
T3
X058425Y-034426
T0
M30
