G04 #@! TF.GenerationSoftware,KiCad,Pcbnew,(5.0.0)*
G04 #@! TF.CreationDate,2018-09-19T11:52:00-07:00*
G04 #@! TF.ProjectId,BSidesPDX_2018,4253696465735044585F323031382E6B,rev?*
G04 #@! TF.SameCoordinates,Original*
G04 #@! TF.FileFunction,Profile,NP*
%FSLAX46Y46*%
G04 Gerber Fmt 4.6, Leading zero omitted, Abs format (unit mm)*
G04 Created by KiCad (PCBNEW (5.0.0)) date 09/19/18 11:52:00*
%MOMM*%
%LPD*%
G01*
G04 APERTURE LIST*
%ADD10C,0.100000*%
G04 APERTURE END LIST*
D10*
X104866990Y-140393868D02*
X104709950Y-140279958D01*
X104709950Y-140279958D02*
X104544990Y-140139828D01*
X104544990Y-140139828D02*
X104391920Y-139990788D01*
X104391920Y-139990788D02*
X104270510Y-139850168D01*
X104270510Y-139850168D02*
X104111140Y-139606008D01*
X104111140Y-139606008D02*
X103936800Y-139280578D01*
X103936800Y-139280578D02*
X103751820Y-138884618D01*
X103751820Y-138884618D02*
X103560540Y-138428908D01*
X103560540Y-138428908D02*
X103367270Y-137924198D01*
X103367270Y-137924198D02*
X103176350Y-137381268D01*
X103176350Y-137381268D02*
X102992120Y-136810868D01*
X102992120Y-136810868D02*
X102818890Y-136223758D01*
X102818890Y-136223758D02*
X102504240Y-135061068D01*
X102504240Y-135061068D02*
X102304890Y-134178968D01*
X102304890Y-134178968D02*
X102241190Y-133806488D01*
X102241190Y-133806488D02*
X102197590Y-133460168D01*
X102197590Y-133460168D02*
X102171190Y-133125358D01*
X102171190Y-133125358D02*
X102159090Y-132787398D01*
X102159090Y-132787398D02*
X102163090Y-132407998D01*
X102163090Y-132407998D02*
X102202090Y-132115688D01*
X102202090Y-132115688D02*
X102293590Y-131837238D01*
X102293590Y-131837238D02*
X102454840Y-131499408D01*
X102454840Y-131499408D02*
X102576990Y-131245628D01*
X102576990Y-131245628D02*
X102675890Y-131001238D01*
X102675890Y-131001238D02*
X102742090Y-130793478D01*
X102742090Y-130793478D02*
X102766290Y-130649548D01*
X102766290Y-130649548D02*
X102729790Y-130496308D01*
X102729790Y-130496308D02*
X102621090Y-130290608D01*
X102621090Y-130290608D02*
X102441120Y-130033438D01*
X102441120Y-130033438D02*
X102190880Y-129725798D01*
X102190880Y-129725798D02*
X101935920Y-129415588D01*
X101935920Y-129415588D02*
X101713270Y-129119958D01*
X101713270Y-129119958D02*
X101522690Y-128835268D01*
X101522690Y-128835268D02*
X101363950Y-128557908D01*
X101363950Y-128557908D02*
X101236830Y-128284258D01*
X101236830Y-128284258D02*
X101141130Y-128010698D01*
X101141130Y-128010698D02*
X101076530Y-127733618D01*
X101076530Y-127733618D02*
X101042830Y-127449398D01*
X101042830Y-127449398D02*
X101039830Y-127154408D01*
X101039830Y-127154408D02*
X101067230Y-126845038D01*
X101067230Y-126845038D02*
X101124930Y-126517658D01*
X101124930Y-126517658D02*
X101212530Y-126168668D01*
X101212530Y-126168668D02*
X101329930Y-125794438D01*
X101329930Y-125794438D02*
X101476850Y-125391358D01*
X101476850Y-125391358D02*
X101858330Y-124484138D01*
X101858330Y-124484138D02*
X102222550Y-123665958D01*
X102222550Y-123665958D02*
X102291150Y-121691748D01*
X102291150Y-121691748D02*
X102324150Y-120843548D01*
X102324150Y-120843548D02*
X102364450Y-120184378D01*
X102364450Y-120184378D02*
X102424650Y-119674168D01*
X102424650Y-119674168D02*
X102517450Y-119272828D01*
X102517450Y-119272828D02*
X102580050Y-119100458D01*
X102580050Y-119100458D02*
X102655550Y-118940278D01*
X102655550Y-118940278D02*
X102745550Y-118787268D01*
X102745550Y-118787268D02*
X102851610Y-118636428D01*
X102851610Y-118636428D02*
X103118290Y-118321188D01*
X103118290Y-118321188D02*
X103468300Y-117954488D01*
X103468300Y-117954488D02*
X104275930Y-117125748D01*
X104275930Y-117125748D02*
X104334030Y-115969738D01*
X104334030Y-115969738D02*
X104362530Y-115483058D01*
X104362530Y-115483058D02*
X104403530Y-115052418D01*
X104403530Y-115052418D02*
X104461630Y-114660128D01*
X104461630Y-114660128D02*
X104541330Y-114288508D01*
X104541330Y-114288508D02*
X104647240Y-113919848D01*
X104647240Y-113919848D02*
X104783970Y-113536468D01*
X104783970Y-113536468D02*
X104956080Y-113120668D01*
X104956080Y-113120668D02*
X105168150Y-112654768D01*
X105168150Y-112654768D02*
X105392840Y-112164208D01*
X105392840Y-112164208D02*
X105564210Y-111753938D01*
X105564210Y-111753938D02*
X105688320Y-111388948D01*
X105688320Y-111388948D02*
X105771220Y-111034238D01*
X105771220Y-111034238D02*
X105819020Y-110654768D01*
X105819020Y-110654768D02*
X105837720Y-110215548D01*
X105837720Y-110215548D02*
X105833720Y-109681568D01*
X105833720Y-109681568D02*
X105812420Y-109017798D01*
X105812420Y-109017798D02*
X105796520Y-108312778D01*
X105796520Y-108312778D02*
X105796530Y-107641408D01*
X105796530Y-107641408D02*
X105812430Y-107078908D01*
X105812430Y-107078908D02*
X105844130Y-106700498D01*
X105844130Y-106700498D02*
X105937830Y-105673808D01*
X105937830Y-105673808D02*
X106039450Y-104092858D01*
X106039450Y-104092858D02*
X106092450Y-103275088D01*
X106092450Y-103275088D02*
X106158250Y-102503338D01*
X106158250Y-102503338D02*
X106228050Y-101865208D01*
X106228050Y-101865208D02*
X106292850Y-101448278D01*
X106292850Y-101448278D02*
X106364650Y-101011968D01*
X106364650Y-101011968D02*
X106415650Y-100396518D01*
X106415650Y-100396518D02*
X106448850Y-99561348D01*
X106448850Y-99561348D02*
X106467150Y-98465868D01*
X106467150Y-98465868D02*
X106507450Y-96754278D01*
X106507450Y-96754278D02*
X106536250Y-96167688D01*
X106536250Y-96167688D02*
X106567450Y-95874068D01*
X106567450Y-95874068D02*
X106700060Y-95507868D01*
X106700060Y-95507868D02*
X106915830Y-95034768D01*
X106915830Y-95034768D02*
X107196260Y-94433668D01*
X107196260Y-94433668D02*
X107480650Y-93757348D01*
X107480650Y-93757348D02*
X107765690Y-93028898D01*
X107765690Y-93028898D02*
X107765690Y-90606008D01*
X107765690Y-90606008D02*
X107776790Y-89527858D01*
X107776790Y-89527858D02*
X107807190Y-88445738D01*
X107807190Y-88445738D02*
X107852490Y-87464578D01*
X107852490Y-87464578D02*
X107908190Y-86689288D01*
X107908190Y-86689288D02*
X108024070Y-85278498D01*
X108024070Y-85278498D02*
X108053170Y-84695918D01*
X108053170Y-84695918D02*
X108063170Y-84152248D01*
X108063170Y-84152248D02*
X108054170Y-83615268D01*
X108054170Y-83615268D02*
X108026070Y-83052738D01*
X108026070Y-83052738D02*
X107913160Y-81722108D01*
X107913160Y-81722108D02*
X107817760Y-80694428D01*
X107817760Y-80694428D02*
X107783160Y-80056708D01*
X107783160Y-80056708D02*
X107788160Y-79824078D01*
X107788160Y-79824078D02*
X107807260Y-79616938D01*
X107807260Y-79616938D02*
X107887060Y-79183098D01*
X107887060Y-79183098D02*
X107971060Y-78761308D01*
X107971060Y-78761308D02*
X107988560Y-78593898D01*
X107988560Y-78593898D02*
X107988670Y-78429578D01*
X107988670Y-78429578D02*
X107933070Y-78032528D01*
X107933070Y-78032528D02*
X107797330Y-77414768D01*
X107797330Y-77414768D02*
X107674770Y-76827518D01*
X107674770Y-76827518D02*
X107608670Y-76347168D01*
X107608670Y-76347168D02*
X107588070Y-75864828D01*
X107588070Y-75864828D02*
X107602070Y-75271648D01*
X107602070Y-75271648D02*
X107634770Y-74712388D01*
X107634770Y-74712388D02*
X107696370Y-74281418D01*
X107696370Y-74281418D02*
X107744970Y-74108358D01*
X107744970Y-74108358D02*
X107809270Y-73960558D01*
X107809270Y-73960558D02*
X107891970Y-73835738D01*
X107891970Y-73835738D02*
X107995960Y-73731618D01*
X107995960Y-73731618D02*
X108124010Y-73645918D01*
X108124010Y-73645918D02*
X108278940Y-73576418D01*
X108278940Y-73576418D02*
X108463540Y-73520818D01*
X108463540Y-73520818D02*
X108680620Y-73476818D01*
X108680620Y-73476818D02*
X109223460Y-73414518D01*
X109223460Y-73414518D02*
X109929920Y-73371418D01*
X109929920Y-73371418D02*
X110533910Y-73336218D01*
X110533910Y-73336218D02*
X111178970Y-73283718D01*
X111178970Y-73283718D02*
X112289460Y-73160338D01*
X112289460Y-73160338D02*
X113275320Y-73037118D01*
X113275320Y-73037118D02*
X114107280Y-72970318D01*
X114107280Y-72970318D02*
X114708630Y-72963318D01*
X114708630Y-72963318D02*
X114898850Y-72982818D01*
X114898850Y-72982818D02*
X115002660Y-73018218D01*
X115002660Y-73018218D02*
X115425120Y-73376588D01*
X115425120Y-73376588D02*
X115745630Y-73695858D01*
X115745630Y-73695858D02*
X115981020Y-73994348D01*
X115981020Y-73994348D02*
X116148120Y-74290358D01*
X116148120Y-74290358D02*
X116314400Y-74622258D01*
X116314400Y-74622258D02*
X116378200Y-74723128D01*
X116378200Y-74723128D02*
X116417300Y-74760128D01*
X116417300Y-74760128D02*
X117045450Y-74617608D01*
X117045450Y-74617608D02*
X117306250Y-74562708D01*
X117306250Y-74562708D02*
X117583870Y-74519208D01*
X117583870Y-74519208D02*
X118058940Y-74480308D01*
X118058940Y-74480308D02*
X118245260Y-74491208D01*
X118245260Y-74491208D02*
X118478590Y-74521808D01*
X118478590Y-74521808D02*
X119032850Y-74630098D01*
X119032850Y-74630098D02*
X119614820Y-74780958D01*
X119614820Y-74780958D02*
X120117610Y-74950118D01*
X120117610Y-74950118D02*
X120301180Y-75037618D01*
X120301180Y-75037618D02*
X120524220Y-75168398D01*
X120524220Y-75168398D02*
X121046640Y-75528738D01*
X121046640Y-75528738D02*
X121600730Y-75969258D01*
X121600730Y-75969258D02*
X122102360Y-76428088D01*
X122102360Y-76428088D02*
X122422590Y-76771148D01*
X122422590Y-76771148D02*
X122689690Y-77118848D01*
X122689690Y-77118848D02*
X122914350Y-77500068D01*
X122914350Y-77500068D02*
X123107270Y-77943708D01*
X123107270Y-77943708D02*
X123279170Y-78478658D01*
X123279170Y-78478658D02*
X123440740Y-79133788D01*
X123440740Y-79133788D02*
X123602680Y-79937998D01*
X123602680Y-79937998D02*
X123775690Y-80920178D01*
X123775690Y-80920178D02*
X123971320Y-82012528D01*
X123971320Y-82012528D02*
X124050320Y-82384378D01*
X124050320Y-82384378D02*
X124125420Y-82667408D01*
X124125420Y-82667408D02*
X124202920Y-82882138D01*
X124202920Y-82882138D02*
X124289320Y-83049108D01*
X124289320Y-83049108D02*
X124391100Y-83188868D01*
X124391100Y-83188868D02*
X124514650Y-83321948D01*
X124514650Y-83321948D02*
X124701260Y-83463198D01*
X124701260Y-83463198D02*
X124975210Y-83609638D01*
X124975210Y-83609638D02*
X125317450Y-83755088D01*
X125317450Y-83755088D02*
X125708940Y-83893358D01*
X125708940Y-83893358D02*
X126130610Y-84018278D01*
X126130610Y-84018278D02*
X126563410Y-84123638D01*
X126563410Y-84123638D02*
X126988300Y-84203238D01*
X126988300Y-84203238D02*
X127386210Y-84250938D01*
X127386210Y-84250938D02*
X127710110Y-84265738D01*
X127710110Y-84265738D02*
X128004880Y-84252838D01*
X128004880Y-84252838D02*
X128294330Y-84203338D01*
X128294330Y-84203338D02*
X128602270Y-84108338D01*
X128602270Y-84108338D02*
X128952530Y-83958888D01*
X128952530Y-83958888D02*
X129368910Y-83746098D01*
X129368910Y-83746098D02*
X130495310Y-83094838D01*
X130495310Y-83094838D02*
X131072080Y-82755868D01*
X131072080Y-82755868D02*
X131559280Y-82490268D01*
X131559280Y-82490268D02*
X131980660Y-82290728D01*
X131980660Y-82290728D02*
X132359980Y-82149958D01*
X132359980Y-82149958D02*
X132720990Y-82060658D01*
X132720990Y-82060658D02*
X133087440Y-82015558D01*
X133087440Y-82015558D02*
X133483090Y-82007558D01*
X133483090Y-82007558D02*
X133931690Y-82028858D01*
X133931690Y-82028858D02*
X134448990Y-82053158D01*
X134448990Y-82053158D02*
X134835650Y-82037358D01*
X134835650Y-82037358D02*
X135208460Y-81967158D01*
X135208460Y-81967158D02*
X135684190Y-81828198D01*
X135684190Y-81828198D02*
X136518210Y-81569538D01*
X136518210Y-81569538D02*
X137890650Y-81828198D01*
X137890650Y-81828198D02*
X139077020Y-82065738D01*
X139077020Y-82065738D02*
X140002090Y-82271608D01*
X140002090Y-82271608D02*
X140378380Y-82354908D01*
X140378380Y-82354908D02*
X140775570Y-82422508D01*
X140775570Y-82422508D02*
X141188850Y-82474008D01*
X141188850Y-82474008D02*
X141613390Y-82509108D01*
X141613390Y-82509108D02*
X142044360Y-82527308D01*
X142044360Y-82527308D02*
X142476940Y-82528308D01*
X142476940Y-82528308D02*
X142906300Y-82511808D01*
X142906300Y-82511808D02*
X143327620Y-82477308D01*
X143327620Y-82477308D02*
X143831970Y-82414408D01*
X143831970Y-82414408D02*
X144026960Y-82376108D01*
X144026960Y-82376108D02*
X144203200Y-82326808D01*
X144203200Y-82326808D02*
X144375240Y-82261708D01*
X144375240Y-82261708D02*
X144557610Y-82175908D01*
X144557610Y-82175908D02*
X145011490Y-81923038D01*
X145011490Y-81923038D02*
X145384120Y-81718118D01*
X145384120Y-81718118D02*
X145728970Y-81565408D01*
X145728970Y-81565408D02*
X146068250Y-81463168D01*
X146068250Y-81463168D02*
X146424180Y-81409668D01*
X146424180Y-81409668D02*
X146818950Y-81403668D01*
X146818950Y-81403668D02*
X147274780Y-81442468D01*
X147274780Y-81442468D02*
X147813870Y-81524868D01*
X147813870Y-81524868D02*
X148458430Y-81649038D01*
X148458430Y-81649038D02*
X149167990Y-81788098D01*
X149167990Y-81788098D02*
X149629620Y-81854898D01*
X149629620Y-81854898D02*
X149943770Y-81857898D01*
X149943770Y-81857898D02*
X150210920Y-81806898D01*
X150210920Y-81806898D02*
X150839830Y-81616618D01*
X150839830Y-81616618D02*
X151708810Y-81323898D01*
X151708810Y-81323898D02*
X153832710Y-80555858D01*
X153832710Y-80555858D02*
X155914050Y-79752188D01*
X155914050Y-79752188D02*
X156729830Y-79414938D01*
X156729830Y-79414938D02*
X157284260Y-79162308D01*
X157284260Y-79162308D02*
X158477230Y-78560548D01*
X158477230Y-78560548D02*
X160794540Y-78507748D01*
X160794540Y-78507748D02*
X162225040Y-78466848D01*
X162225040Y-78466848D02*
X162697430Y-78436848D01*
X162697430Y-78436848D02*
X163065660Y-78390248D01*
X163065660Y-78390248D02*
X163373010Y-78319448D01*
X163373010Y-78319448D02*
X163662800Y-78216728D01*
X163662800Y-78216728D02*
X163978320Y-78074418D01*
X163978320Y-78074418D02*
X164362880Y-77884838D01*
X164362880Y-77884838D02*
X164726200Y-77722108D01*
X164726200Y-77722108D02*
X165103860Y-77592538D01*
X165103860Y-77592538D02*
X165520130Y-77487708D01*
X165520130Y-77487708D02*
X165999250Y-77399208D01*
X165999250Y-77399208D02*
X166646820Y-77328608D01*
X166646820Y-77328608D02*
X167640480Y-77266908D01*
X167640480Y-77266908D02*
X168999730Y-77213608D01*
X168999730Y-77213608D02*
X170744060Y-77168208D01*
X170744060Y-77168208D02*
X175465850Y-77099208D01*
X175465850Y-77099208D02*
X181961760Y-77056008D01*
X181961760Y-77056008D02*
X187155830Y-77036608D01*
X187155830Y-77036608D02*
X188670060Y-77059008D01*
X188670060Y-77059008D02*
X189216530Y-77085808D01*
X189216530Y-77085808D02*
X189645440Y-77125908D01*
X189645440Y-77125908D02*
X189973960Y-77181508D01*
X189973960Y-77181508D02*
X190219230Y-77254708D01*
X190219230Y-77254708D02*
X190398430Y-77347708D01*
X190398430Y-77347708D02*
X190528700Y-77462688D01*
X190528700Y-77462688D02*
X190627200Y-77601798D01*
X190627200Y-77601798D02*
X190711100Y-77767198D01*
X190711100Y-77767198D02*
X190903720Y-78185528D01*
X190903720Y-78185528D02*
X191203180Y-78719358D01*
X191203180Y-78719358D02*
X191542600Y-79223678D01*
X191542600Y-79223678D02*
X191908990Y-79685818D01*
X191908990Y-79685818D02*
X192289360Y-80093078D01*
X192289360Y-80093078D02*
X192670720Y-80432798D01*
X192670720Y-80432798D02*
X192857710Y-80573358D01*
X192857710Y-80573358D02*
X193040080Y-80692288D01*
X193040080Y-80692288D02*
X193216200Y-80787988D01*
X193216200Y-80787988D02*
X193384440Y-80858888D01*
X193384440Y-80858888D02*
X193543200Y-80903388D01*
X193543200Y-80903388D02*
X193690830Y-80919888D01*
X193690830Y-80919888D02*
X193830170Y-80936888D01*
X193830170Y-80936888D02*
X193988990Y-80980888D01*
X193988990Y-80980888D02*
X194158570Y-81047388D01*
X194158570Y-81047388D02*
X194330200Y-81131588D01*
X194330200Y-81131588D02*
X194495150Y-81228988D01*
X194495150Y-81228988D02*
X194644690Y-81334828D01*
X194644690Y-81334828D02*
X194770110Y-81444498D01*
X194770110Y-81444498D02*
X194862710Y-81553348D01*
X194862710Y-81553348D02*
X194965480Y-81735628D01*
X194965480Y-81735628D02*
X195102880Y-82025788D01*
X195102880Y-82025788D02*
X195406400Y-82767438D01*
X195406400Y-82767438D02*
X195581920Y-83259258D01*
X195581920Y-83259258D02*
X195690130Y-83649628D01*
X195690130Y-83649628D02*
X195744930Y-83997438D01*
X195744930Y-83997438D02*
X195760130Y-84361578D01*
X195760130Y-84361578D02*
X195751130Y-84673708D01*
X195751130Y-84673708D02*
X195716330Y-84973158D01*
X195716330Y-84973158D02*
X195644430Y-85290298D01*
X195644430Y-85290298D02*
X195524010Y-85655498D01*
X195524010Y-85655498D02*
X195343720Y-86099138D01*
X195343720Y-86099138D02*
X195092160Y-86651588D01*
X195092160Y-86651588D02*
X194329730Y-88204408D01*
X194329730Y-88204408D02*
X193758400Y-89363638D01*
X193758400Y-89363638D02*
X193421150Y-90110648D01*
X193421150Y-90110648D02*
X193317570Y-90385698D01*
X193317570Y-90385698D02*
X193245270Y-90625068D01*
X193245270Y-90625068D02*
X193195070Y-90851188D01*
X193195070Y-90851188D02*
X193157970Y-91086538D01*
X193157970Y-91086538D02*
X193095970Y-91513938D01*
X193095970Y-91513938D02*
X193027970Y-91872058D01*
X193027970Y-91872058D02*
X192946970Y-92176238D01*
X192946970Y-92176238D02*
X192845960Y-92441818D01*
X192845960Y-92441818D02*
X192717990Y-92684138D01*
X192717990Y-92684138D02*
X192556050Y-92918538D01*
X192556050Y-92918538D02*
X192353170Y-93160358D01*
X192353170Y-93160358D02*
X192102340Y-93424948D01*
X192102340Y-93424948D02*
X191859250Y-93680668D01*
X191859250Y-93680668D02*
X191665040Y-93908928D01*
X191665040Y-93908928D02*
X191514610Y-94120858D01*
X191514610Y-94120858D02*
X191402920Y-94327588D01*
X191402920Y-94327588D02*
X191324820Y-94540268D01*
X191324820Y-94540268D02*
X191275320Y-94770008D01*
X191275320Y-94770008D02*
X191249320Y-95027958D01*
X191249320Y-95027958D02*
X191241320Y-95325248D01*
X191241320Y-95325248D02*
X191232320Y-95555858D01*
X191232320Y-95555858D02*
X191199720Y-95770638D01*
X191199720Y-95770638D02*
X191136020Y-95984418D01*
X191136020Y-95984418D02*
X191033680Y-96212058D01*
X191033680Y-96212058D02*
X190885060Y-96468408D01*
X190885060Y-96468408D02*
X190682570Y-96768298D01*
X190682570Y-96768298D02*
X190085510Y-97558108D01*
X190085510Y-97558108D02*
X189513440Y-98311628D01*
X189513440Y-98311628D02*
X189327610Y-98573578D01*
X189327610Y-98573578D02*
X189246210Y-98708838D01*
X189246210Y-98708838D02*
X189152610Y-98953228D01*
X189152610Y-98953228D02*
X189029800Y-99224908D01*
X189029800Y-99224908D02*
X188718360Y-99812728D01*
X188718360Y-99812728D02*
X188355450Y-100397588D01*
X188355450Y-100397588D02*
X187984630Y-100904748D01*
X187984630Y-100904748D02*
X187746310Y-101204298D01*
X187746310Y-101204298D02*
X187558710Y-101466178D01*
X187558710Y-101466178D02*
X187417140Y-101703188D01*
X187417140Y-101703188D02*
X187316890Y-101928128D01*
X187316890Y-101928128D02*
X187253290Y-102153828D01*
X187253290Y-102153828D02*
X187221590Y-102393058D01*
X187221590Y-102393058D02*
X187217590Y-102658648D01*
X187217590Y-102658648D02*
X187235590Y-102963398D01*
X187235590Y-102963398D02*
X187273290Y-103338918D01*
X187273290Y-103338918D02*
X187329190Y-103642688D01*
X187329190Y-103642688D02*
X187418690Y-103893508D01*
X187418690Y-103893508D02*
X187480790Y-104004938D01*
X187480790Y-104004938D02*
X187556990Y-104110178D01*
X187556990Y-104110178D02*
X187759350Y-104311508D01*
X187759350Y-104311508D02*
X188041070Y-104516308D01*
X188041070Y-104516308D02*
X188417430Y-104743368D01*
X188417430Y-104743368D02*
X188903710Y-105011508D01*
X188903710Y-105011508D02*
X189763540Y-105482628D01*
X189763540Y-105482628D02*
X190057530Y-105659538D01*
X190057530Y-105659538D02*
X190279450Y-105811218D01*
X190279450Y-105811218D02*
X190443220Y-105948048D01*
X190443220Y-105948048D02*
X190562760Y-106080428D01*
X190562760Y-106080428D02*
X190651960Y-106218738D01*
X190651960Y-106218738D02*
X190724760Y-106373388D01*
X190724760Y-106373388D02*
X190799460Y-106582738D01*
X190799460Y-106582738D02*
X190845560Y-106791218D01*
X190845560Y-106791218D02*
X190863060Y-106998958D01*
X190863060Y-106998958D02*
X190852060Y-107206088D01*
X190852060Y-107206088D02*
X190812660Y-107412708D01*
X190812660Y-107412708D02*
X190744860Y-107618968D01*
X190744860Y-107618968D02*
X190648660Y-107824978D01*
X190648660Y-107824978D02*
X190524210Y-108030868D01*
X190524210Y-108030868D02*
X190191660Y-108527048D01*
X190191660Y-108527048D02*
X190429200Y-108970458D01*
X190429200Y-108970458D02*
X190557540Y-109253068D01*
X190557540Y-109253068D02*
X190637340Y-109528928D01*
X190637340Y-109528928D02*
X190668140Y-109801198D01*
X190668140Y-109801198D02*
X190649540Y-110073038D01*
X190649540Y-110073038D02*
X190580940Y-110347598D01*
X190580940Y-110347598D02*
X190461840Y-110628028D01*
X190461840Y-110628028D02*
X190291770Y-110917498D01*
X190291770Y-110917498D02*
X190070230Y-111219148D01*
X190070230Y-111219148D02*
X189877960Y-111457718D01*
X189877960Y-111457718D02*
X189801060Y-111588398D01*
X189801060Y-111588398D02*
X189735660Y-111759878D01*
X189735660Y-111759878D02*
X189680860Y-111997058D01*
X189680860Y-111997058D02*
X189635760Y-112324818D01*
X189635760Y-112324818D02*
X189599360Y-112768078D01*
X189599360Y-112768078D02*
X189570760Y-113351718D01*
X189570760Y-113351718D02*
X189533260Y-115039768D01*
X189533260Y-115039768D02*
X189515760Y-117588138D01*
X189515760Y-117588138D02*
X189510760Y-126062598D01*
X189510760Y-126062598D02*
X189507760Y-133675428D01*
X189507760Y-133675428D02*
X189487560Y-137763298D01*
X189487560Y-137763298D02*
X189466460Y-138841218D01*
X189466460Y-138841218D02*
X189435560Y-139464908D01*
X189435560Y-139464908D02*
X189393060Y-139776708D01*
X189393060Y-139776708D02*
X189336960Y-139918948D01*
X189336960Y-139918948D02*
X189234270Y-140047778D01*
X189234270Y-140047778D02*
X189089520Y-140185518D01*
X189089520Y-140185518D02*
X188922010Y-140315338D01*
X188922010Y-140315338D02*
X188751030Y-140420418D01*
X188751030Y-140420418D02*
X188339300Y-140636838D01*
X188339300Y-140636838D02*
X146780800Y-140631838D01*
X146780800Y-140631838D02*
X105222300Y-140626838D01*
X105222300Y-140626838D02*
X104868830Y-140394038D01*
X104868830Y-140394038D02*
X104866990Y-140393868D01*
M02*
