<?xml version="1.0" encoding="UTF-8" standalone="no"?>
<!-- Created with Inkscape (http://www.inkscape.org/) -->

<svg
   xmlns:dc="http://purl.org/dc/elements/1.1/"
   xmlns:cc="http://creativecommons.org/ns#"
   xmlns:rdf="http://www.w3.org/1999/02/22-rdf-syntax-ns#"
   xmlns:svg="http://www.w3.org/2000/svg"
   xmlns="http://www.w3.org/2000/svg"
   xmlns:sodipodi="http://sodipodi.sourceforge.net/DTD/sodipodi-0.dtd"
   xmlns:inkscape="http://www.inkscape.org/namespaces/inkscape"
   id="svg2"
   height="68.206085mm"
   width="95.250008mm"
   version="1.1"
   viewBox="0 0 337.49698 241.67714"
   sodipodi:docname="or_outline.svg"
   inkscape:version="0.92.3 (2405546, 2018-03-11)">
  <defs
     id="defs8" />
  <sodipodi:namedview
     pagecolor="#ffffff"
     bordercolor="#666666"
     borderopacity="1"
     objecttolerance="10"
     gridtolerance="10"
     guidetolerance="10"
     inkscape:pageopacity="0"
     inkscape:pageshadow="2"
     inkscape:window-width="1920"
     inkscape:window-height="1143"
     id="namedview6"
     showgrid="false"
     fit-margin-top="0"
     fit-margin-left="0"
     fit-margin-right="0"
     fit-margin-bottom="0"
     inkscape:zoom="1.7256229"
     inkscape:cx="203.75904"
     inkscape:cy="66.284151"
     inkscape:window-x="0"
     inkscape:window-y="27"
     inkscape:window-maximized="1"
     inkscape:current-layer="svg2" />
  <metadata
     id="metadata7">
    <rdf:RDF>
      <cc:Work
         rdf:about="">
        <dc:format>image/svg+xml</dc:format>
        <dc:type
           rdf:resource="http://purl.org/dc/dcmitype/StillImage" />
        <dc:title></dc:title>
      </cc:Work>
    </rdf:RDF>
  </metadata>
  <g
     id="layer1"
     transform="translate(-107.58873,-341.09521)">
    <path
       id="path4182"
       d="m 122.09174,580.97675 c -0.69204,-0.44889 -1.64594,-1.30927 -2.11354,-1.9265 -1.42149,-1.88908 -3.57243,-7.25709 -5.14356,-12.84954 -1.79557,-6.34061 -2.28187,-8.92174 -2.33798,-12.17621 -0.0374,-2.11354 0.0935,-2.71206 1.04742,-4.56375 0.61722,-1.17834 1.10352,-2.52502 1.10352,-3.01132 0,-0.59852 -0.69204,-1.70205 -2.03872,-3.27317 -5.12485,-6.02264 -5.3306,-9.29582 -1.17834,-18.57293 l 1.29057,-2.8991 0.24315,-6.99524 c 0.31796,-9.03396 0.43019,-9.40804 4.17096,-13.24233 l 2.86169,-2.9365 0.20574,-4.09615 c 0.22445,-4.91911 0.74815,-7.05135 2.95521,-11.74602 2.39409,-5.12486 2.54372,-5.89171 2.28187,-12.88696 -0.11222,-3.29188 -0.0748,-6.97654 0.11222,-8.21099 0.16834,-1.23445 0.4863,-5.38671 0.69204,-9.2397 0.20575,-3.83429 0.61723,-8.06137 0.89779,-9.37064 0.39278,-1.70205 0.56112,-4.71337 0.61723,-10.56767 0.0561,-4.48893 0.20574,-8.62248 0.35537,-9.1836 0.14963,-0.56111 0.69204,-1.90779 1.23445,-2.97391 0.54242,-1.06612 1.4402,-3.10484 2.00132,-4.52633 l 1.01001,-2.58114 v -8.58507 c 0,-4.91911 0.22444,-10.86694 0.505,-13.87826 0.72945,-7.74339 0.72945,-10.36193 0.0187,-17.60032 -0.59852,-6.07876 -0.59852,-6.65858 -0.0935,-8.99656 0.54242,-2.4502 0.52371,-2.58113 -0.31796,-6.26579 -0.72945,-3.19836 -0.82297,-4.358 -0.69204,-7.59377 0.24315,-5.94782 0.72945,-6.35931 8.2484,-6.73338 2.63724,-0.11223 6.37801,-0.4676 8.36062,-0.74816 4.90041,-0.71075 9.07137,-0.91649 9.61378,-0.505 2.26317,1.81427 3.4041,3.08613 4.05874,4.50763 0.41148,0.91649 0.84167,1.66464 0.95389,1.66464 0.0935,0 1.10353,-0.24315 2.22576,-0.505 1.14094,-0.28056 2.74947,-0.48631 3.59114,-0.48631 1.49631,0 5.27449,0.86038 7.29451,1.66465 1.51501,0.59852 4.91911,3.12354 7.03265,5.23708 3.31058,3.31058 4.20836,5.70467 5.92912,15.91698 1.10353,6.45283 1.32797,7.21969 2.61854,8.51025 1.29057,1.29057 6.60246,3.01132 10.1749,3.29188 3.27317,0.24315 4.54503,-0.22444 11.01657,-4.09614 5.94782,-3.57244 7.61247,-4.09615 12.17621,-3.77818 2.9365,0.18704 3.53503,0.13093 6.20968,-0.71075 l 2.95521,-0.91649 4.863,0.91649 c 2.67465,0.50501 6.04135,1.21575 7.48154,1.57113 3.44151,0.86037 7.85562,1.14093 11.78343,0.72945 2.8804,-0.29927 3.4041,-0.4676 5.96653,-1.96391 3.72207,-2.18835 5.55505,-2.33798 12.21362,-0.9726 4.09614,0.84167 4.90041,0.91649 6.20968,0.56112 4.54504,-1.21575 21.32239,-7.48155 25.06317,-9.37064 l 4.22707,-2.13223 8.21099,-0.18704 c 8.69729,-0.20575 8.54766,-0.16834 12.64381,-2.20706 1.72075,-0.86038 3.34799,-1.32797 5.79819,-1.72075 4.54504,-0.71075 21.43462,-1.06612 56.56046,-1.21575 32.65693,-0.13093 29.38376,-0.54242 31.68433,4.00262 2.59984,5.14356 7.20099,9.65119 9.87564,9.6886 1.19705,0.0187 3.46021,1.23445 4.15225,2.24446 0.37408,0.54241 1.25316,2.48761 1.9265,4.30189 1.01001,2.65595 1.25316,3.79688 1.25316,5.64856 0,3.10484 -0.54241,4.58245 -5.06874,13.61641 -3.3667,6.73339 -3.83429,7.87432 -4.15226,10.21231 -0.57982,4.41411 -1.12223,5.62986 -3.74077,8.2858 -2.54373,2.58114 -3.04873,3.70337 -3.04873,6.73339 0,2.30058 -0.59852,3.44151 -4.09614,7.91173 -1.53372,1.96391 -2.8804,3.79688 -2.97392,4.07744 -0.72945,2.15095 -2.76817,5.68597 -4.47022,7.78081 -2.50632,3.04873 -2.9178,4.18966 -2.65595,7.2945 0.31797,3.94651 0.74816,4.47022 5.91042,7.2571 5.05004,2.69335 5.7982,3.25447 6.45283,4.82559 0.84168,1.98261 0.59853,3.92781 -0.71074,5.87301 l -1.17835,1.75816 0.84168,1.57113 c 1.44019,2.71206 1.06612,5.05004 -1.27187,7.96784 -2.07612,2.58113 -1.9826,0.0374 -1.9826,52.59524 0,46.0863 -0.0187,48.10632 -0.61723,49.09762 -0.35538,0.56112 -1.29057,1.36539 -2.07613,1.77687 l -1.4589,0.76686 -147.25546,-0.0187 -147.25545,-0.0187 z"
       inkscape:connector-curvature="0"
       style="fill:none;stroke:#000000;stroke-width:1.87038553" />
  </g>
</svg>
