<?xml version="1.0" encoding="UTF-8" standalone="no"?>
<!-- Created with Inkscape (http://www.inkscape.org/) -->

<svg
   xmlns:dc="http://purl.org/dc/elements/1.1/"
   xmlns:cc="http://creativecommons.org/ns#"
   xmlns:rdf="http://www.w3.org/1999/02/22-rdf-syntax-ns#"
   xmlns:svg="http://www.w3.org/2000/svg"
   xmlns="http://www.w3.org/2000/svg"
   xmlns:sodipodi="http://sodipodi.sourceforge.net/DTD/sodipodi-0.dtd"
   xmlns:inkscape="http://www.inkscape.org/namespaces/inkscape"
   version="1.1"
   id="svg51"
   width="12.000001mm"
   height="13.874276mm"
   viewBox="0 0 45.354336 52.438209"
   sodipodi:docname="beard.svg"
   inkscape:version="0.92.3 (2405546, 2018-03-11)">
  <metadata
     id="metadata57">
    <rdf:RDF>
      <cc:Work
         rdf:about="">
        <dc:format>image/svg+xml</dc:format>
        <dc:type
           rdf:resource="http://purl.org/dc/dcmitype/StillImage" />
        <dc:title></dc:title>
      </cc:Work>
    </rdf:RDF>
  </metadata>
  <defs
     id="defs55" />
  <sodipodi:namedview
     pagecolor="#ffffff"
     bordercolor="#666666"
     borderopacity="1"
     objecttolerance="10"
     gridtolerance="10"
     guidetolerance="10"
     inkscape:pageopacity="0"
     inkscape:pageshadow="2"
     inkscape:window-width="1920"
     inkscape:window-height="1143"
     id="namedview53"
     showgrid="false"
     fit-margin-top="0"
     fit-margin-left="0"
     fit-margin-right="0"
     fit-margin-bottom="0"
     units="mm"
     inkscape:zoom="11.125147"
     inkscape:cx="39.334104"
     inkscape:cy="16.951036"
     inkscape:window-x="0"
     inkscape:window-y="27"
     inkscape:window-maximized="1"
     inkscape:current-layer="svg51" />
  <path
     style="fill:#000000;stroke-width:0.08471421"
     d="m 21.723798,52.25926 c -1.79777,-0.50569 -4.26879,-2.14593 -6.91945,-4.59306 -0.71031,-0.65577 -1.09531,-0.95749 -1.13658,-0.89071 -0.11211,0.18138 -0.0648,0.7853 0.084,1.07192 0.08,0.15421 0.28125,0.43059 0.44711,0.61418 0.16586,0.18358 0.26854,0.33308 0.22817,0.33221 -0.0404,-8.7e-4 -0.37149,-0.16289 -0.73583,-0.36004 -1.937,-1.04813 -3.59408,-3.35503 -4.6733899,-6.50604 -0.21242,-0.62015 -0.40391,-1.14524 -0.42554,-1.16687 -0.0216,-0.0216 -0.097,0.0987 -0.16752,0.26745 -0.16242,0.38873 -0.16166,1.04909 0.002,1.74344 0.0702,0.29794 0.11248,0.55692 0.0939,0.5755 -0.0186,0.0186 -0.18626,-0.13942 -0.3726,-0.35112 -0.68591,-0.77923 -1.20164,-2.05262 -1.5387,-3.79923 -0.19176,-0.99368 -0.37335,-3.64746 -0.2908,-4.24975 0.0725,-0.52861 -0.10752,-0.51185 -0.68299,0.0636 -0.45242,0.45241 -0.81229,1.17515 -0.81229,1.6313 0,0.11474 -0.0346,0.20861 -0.0769,0.20861 -0.0423,0 -0.14289,-0.36662 -0.22357,-0.81471 -0.39659,-2.20262 0.37553,-4.19969 2.39793,-6.2022 0.392,-0.38814 0.6999,-0.71367 0.68423,-0.72342 -0.0157,-0.01 -0.37158,-0.0855 -0.79092,-0.16831 -3.04271,-0.601 -5.42802,-2.3694 -6.33031997,-4.69312 -1.16604,-3.00291 -0.15283,-6.37672 2.27378997,-7.57135 1.06228,-0.52295 2.35014,-0.41293 3.09126,0.26411 l 0.37227,0.34008 -0.46239,-0.233 c -0.39003,-0.19653 -0.56898,-0.23299 -1.14364,-0.23299 -0.57438,0 -0.7569,0.0371 -1.16346,0.2368 -0.98678,0.48457 -1.85672,1.51168 -2.18754,2.58276 -0.35140997,1.13772 -0.12717,2.30496 0.5945,3.09458 1.10521,1.20928 2.93938,1.21057 5.35645,0.004 1.32903,-0.66356 1.92785,-1.08768 4.0880199,-2.89536 1.68106,-1.40676 2.33369,-1.87102 3.30477,-2.35093 1.04312,-0.51552 1.87906,-0.71398 3.00735,-0.71398 2.67794,0 4.56571,1.33857 5.16303,3.66097 0.0873,0.3394 0.17601,0.55991 0.19714,0.49002 0.0211,-0.0699 0.0823,-0.31767 0.13591,-0.55064 0.16553,-0.71924 0.67434,-1.6228 1.21602,-2.15947 0.95928,-0.95039 2.30441,-1.43918 3.9636,-1.44029 1.9008,-0.001 3.23636,0.66342 5.46236,2.71853 2.15087,1.98575 2.94748,2.58551 4.40514,3.31657 1.30287,0.65344 2.05055,0.8584 3.13443,0.85925 0.7743,5.7e-4 0.99945,-0.0301 1.33168,-0.1815 1.57098,-0.71599 2.11458,-2.67341 1.23261,-4.4384 -0.34762,-0.69565 -1.22388,-1.5785 -1.88658,-1.90079 -0.43216,-0.21016 -0.60981,-0.24718 -1.18619,-0.24718 -0.55926,0 -0.75571,0.0385 -1.12246,0.22001 -0.5206,0.25764 -0.56605,0.21578 -0.13723,-0.12637 0.82499,-0.65827 2.06528,-0.7463 3.13668,-0.22264 1.12655,0.55062 2.15246,1.88826 2.53538,3.30578 0.22261,0.82404 0.20677,2.70495 -0.03,3.57016 -0.61218,2.23656 -2.33065,4.01778 -4.80426,4.9797 -0.81726,0.3178 -2.26854,0.68399 -2.71082,0.68399 -0.11729,0 -0.21326,0.0199 -0.21326,0.0442 0,0.0243 0.15625,0.355 0.34722,0.73482 0.19097,0.37982 0.4749,1.08038 0.63097,1.5568 0.27345,0.83476 0.71609,2.89691 0.71609,3.33606 0,0.19806 -0.0111,0.19228 -0.15685,-0.0821 -0.20231,-0.3807 -0.63917,-0.67639 -0.99932,-0.67639 -0.15618,0 -0.28397,0.0198 -0.28397,0.044 0,0.0242 0.0899,0.26521 0.19971,0.53553 0.35432,0.87198 0.43607,1.35213 0.42778,2.5125 -0.006,0.84784 -0.0503,1.25725 -0.1921,1.779 -0.18779,0.69079 -0.88508,2.20081 -1.19313,2.58378 l -0.17035,0.21178 0.069,-0.25414 c 0.1,-0.3684 0.0329,-0.78657 -0.20585,-1.28313 -0.36182,-0.75255 -0.40822,-0.72716 -0.57255,0.31329 -0.25122,1.59065 -0.87896,3.0817 -1.90361,4.52156 -0.84769,1.19121 -2.62924,2.83982 -3.92813,3.63501 l -0.28208,0.17269 0.18105,-0.20643 c 0.0996,-0.11353 0.25708,-0.35891 0.35001,-0.54528 0.17736,-0.35571 0.41441,-1.28534 0.34536,-1.35439 -0.0772,-0.0772 -1.76117,0.37727 -2.4962,0.67366 -1.50112,0.6053 -3.18552,1.68022 -4.4606,2.84658 -0.78516,0.7182 -1.02975,1.13681 -0.97064,1.66121 l 0.0413,0.36629 -0.30728,-0.006 c -0.169,-0.003 -0.57412,-0.0811 -0.90027,-0.17283 z m 3.10671,-22.00976 c 1.60597,-0.2146 2.92254,-0.54619 4.45404,-1.12178 0.38439,-0.14447 0.69889,-0.28969 0.69889,-0.32273 0,-0.033 -0.15773,-0.10731 -0.35051,-0.16507 -0.64035,-0.19186 -1.83861,-0.74879 -2.63398,-1.22424 -1.74427,-1.04266 -2.9797,-2.2656 -3.75537,-3.71737 l -0.26243,-0.49118 -0.42856,0.70131 c -1.62066,2.65211 -3.74426,4.30697 -6.1743,4.81144 l -0.49559,0.10289 0.42148,0.21535 c 2.26492,1.15726 5.49601,1.61631 8.52633,1.21138 z M 10.965098,14.05025 C 8.9005681,13.78711 6.9372681,12.83539 6.1757981,11.72864 c -0.50564,-0.73493 -1.53775,-3.3912 -1.9899,-5.1213 -0.28992,-1.10934 -0.31846,-1.16452 -1.05052,-2.03123 -0.32997,-0.39067 -0.63773,-0.84628 -0.68389,-1.01246 -0.0462,-0.16619 -0.0842,-0.74134 -0.0844,-1.27813 l -4.5e-4,-0.97597 2.90147,-0.56977 c 3.47977,-0.68334 3.9209,-0.7398 5.7795199,-0.73973 2.11128,6e-5 4.71648,0.31883 7.56994,0.9262 2.20925,0.47026 2.83566,0.54723 4.41934,0.54309 1.71375,-0.005 2.46627,-0.0992 5.97235,-0.75197 C 32.270258,0.11026 33.180648,0 34.932188,0 c 2.00312,0 3.74896,0.23357 5.97942,0.79998 0.629,0.15973 1.38662,0.33687 1.68359,0.39366 0.31525,0.0603 0.63121,0.18173 0.75922,0.29184 0.20952,0.18023 0.22008,0.23141 0.23766,1.15174 0.0226,1.18136 -0.0466,1.43009 -0.47687,1.71482 -0.58873,0.3896 -0.79819,0.86127 -1.45314,3.27224 -0.68489,2.52119 -1.16027,3.47379 -2.23546,4.47957 -1.40584,1.3151 -3.25591,1.96372 -5.63099,1.97419 -1.26359,0.006 -2.21017,-0.13711 -3.27927,-0.4943 -1.26677,-0.42322 -2.06528,-0.90007 -2.92289,-1.74548 -1.07706,-1.06174 -1.86724,-2.44878 -2.56649,-4.50507 -0.44126,-1.29764 -0.77093,-1.91531 -1.10302,-2.06662 -0.26875,-0.12245 -1.43232,-0.13051 -1.65476,-0.0115 -0.24085,0.1289 -0.43652,0.57032 -0.8812,1.98795 -0.3033,0.96688 -0.53103,1.50365 -0.95245,2.24493 -1.67811,2.95183 -3.46289,4.25712 -6.25126,4.57184 -0.89783,0.10133 -2.38368,0.0969 -3.21914,-0.01 z m 2.99248,-1.3872 c 1.85466,-0.30079 3.42765,-1.25786 4.47442,-2.72244 0.20504,-0.28687 0.59566,-0.99312 0.86806,-1.56945 1.13092,-2.39277 1.33673,-3.74222 0.72893,-4.77935 -0.55214,-0.94216 -2.11401,-1.65803 -4.51892,-2.0712 -1.18261,-0.20318 -2.85005,-0.21668 -4.68135,-0.0379 -3.0583099,0.29854 -4.3064799,0.77628 -4.8599999,1.86015 -0.24716,0.48397 -0.25551,0.53746 -0.24439,1.5653 0.0125,1.15392 0.17434,2.08917 0.6313,3.64798 0.49261,1.68038 1.08376,2.60484 2.09939,3.28305 1.1807,0.78844 3.5415099,1.14192 5.5025599,0.82387 z m 22.011,-0.11364 c 1.10277,-0.23397 1.80359,-0.59389 2.48686,-1.27716 0.66736,-0.66736 0.97711,-1.24867 1.39991,-2.62718 0.47099,-1.53566 0.64851,-2.53697 0.66255,-3.73728 0.012,-1.02916 0.004,-1.0812 -0.24345,-1.56529 -0.55038,-1.07696 -1.77581,-1.5499 -4.81672,-1.85897 -1.77745,-0.18065 -3.53775,-0.16683 -4.72462,0.0371 -1.78566,0.30678 -3.26879,0.84424 -3.99007,1.44593 -0.68268,0.56948 -0.99467,1.50317 -0.82696,2.4748 0.20941,1.21316 1.16077,3.47186 1.89509,4.49927 1.0223,1.43033 2.54739,2.37654 4.37484,2.71425 0.93282,0.17239 2.70605,0.12296 3.78257,-0.10545 z"
     id="path61"
     inkscape:connector-curvature="0" />
</svg>
