<?xml version="1.0" encoding="UTF-8" standalone="no"?>
<!-- Created with Inkscape (http://www.inkscape.org/) -->

<svg
   xmlns:dc="http://purl.org/dc/elements/1.1/"
   xmlns:cc="http://creativecommons.org/ns#"
   xmlns:rdf="http://www.w3.org/1999/02/22-rdf-syntax-ns#"
   xmlns:svg="http://www.w3.org/2000/svg"
   xmlns="http://www.w3.org/2000/svg"
   xmlns:sodipodi="http://sodipodi.sourceforge.net/DTD/sodipodi-0.dtd"
   xmlns:inkscape="http://www.inkscape.org/namespaces/inkscape"
   version="1.1"
   id="svg840"
   xml:space="preserve"
   width="23.583168"
   height="30.992126"
   viewBox="0 0 23.583168 30.992127"
   sodipodi:docname="beer.svg"
   inkscape:version="0.92.3 (2405546, 2018-03-11)"><metadata
     id="metadata846"><rdf:RDF><cc:Work
         rdf:about=""><dc:format>image/svg+xml</dc:format><dc:type
           rdf:resource="http://purl.org/dc/dcmitype/StillImage" /><dc:title></dc:title></cc:Work></rdf:RDF></metadata><defs
     id="defs844"><clipPath
       clipPathUnits="userSpaceOnUse"
       id="clipPath858"><path
         d="m 0,3.46094 h 220 v 290 H 0 Z"
         id="path856"
         inkscape:connector-curvature="0" /></clipPath></defs><sodipodi:namedview
     pagecolor="#ffffff"
     bordercolor="#666666"
     borderopacity="1"
     objecttolerance="10"
     gridtolerance="10"
     guidetolerance="10"
     inkscape:pageopacity="0"
     inkscape:pageshadow="2"
     inkscape:window-width="1920"
     inkscape:window-height="1144"
     id="namedview842"
     showgrid="false"
     fit-margin-top="0"
     fit-margin-left="0"
     fit-margin-right="0"
     fit-margin-bottom="0"
     inkscape:zoom="23.6"
     inkscape:cx="11.306513"
     inkscape:cy="16.097486"
     inkscape:window-x="0"
     inkscape:window-y="26"
     inkscape:window-maximized="1"
     inkscape:current-layer="g848" /><g
     id="g848"
     inkscape:groupmode="layer"
     inkscape:label="ink_ext_XXXXXX"
     transform="matrix(1.3333333,0,0,-1.3333333,-2.5758818,35.726021)"><g
       id="g850"
       transform="scale(0.1)"><g
         id="g852"><g
           id="g854"
           clip-path="url(#clipPath858)"><path
             d="m 153.46966,201.71762 v 6.67767 c 4.43925,7.76012 5.27232,15.86849 5.3361,16.76943 0,9.66987 -6.77662,29.05461 -32.44578,33.34016 -13.4829,2.23188 -18.56066,4.43924 -22.26247,6.03263 -3.83525,1.66044 -7.153253,3.06579 -14.913523,3.06579 -33.656558,0 -69.52301,-3.25464 -69.52301,-42.43858 0,-11.2412 3.988714,-24.3701 15.296942,-24.40527 V 50.347893 c 0,0 3.28619,-14.501817 59.271772,-14.501817 55.950199,0 59.239969,14.501817 59.239969,14.501817 V 69.95287 c 23.6989,1.373225 42.38136,15.459876 42.38136,32.83264 v 66.14131 c 0,17.33763 -18.68246,31.41733 -42.38136,32.7908 M 139.00572,75.733135 c 0,0 -0.83308,-14.495341 -44.776029,-14.495341 -44.009904,0 -44.099344,14.495341 -44.099344,14.495341 V 210.97873 c 2.363269,-2.96686 6.508449,-5.1734 14.463458,-5.52493 V 89.851754 c 0,-4.08771 -1.880919,-7.405784 -4.244186,-7.405784 -2.337598,0 -4.218599,3.318074 -4.218599,7.405784 V 82.44597 c 0,-4.73283 3.768378,-8.501208 8.462785,-8.501208 4.659416,0 8.459675,3.768378 8.459675,8.501208 v 105.41514 c 1.440264,-3.89314 4.122863,-7.54019 9.61568,-9.35432 l 3.736411,-1.25165 c 4.218679,-1.33832 6.383855,-2.13298 7.82412,-3.16143 V 81.360191 c 0,-4.055822 -1.912885,-7.415429 -4.244186,-7.415429 -2.337597,0 -4.218598,3.359607 -4.218598,7.415429 v -7.415429 c 0,-4.694406 3.768379,-8.494749 8.462784,-8.494749 4.659415,0 8.459999,3.800343 8.459999,8.494749 v 57.675198 c 2.94397,-6.92375 7.22053,-12.16422 13.57202,-12.16422 1.63509,0 4.50629,0.35156 7.57206,1.75937 V 89.851754 c 0,-4.08771 -1.88116,-7.405784 -4.21197,-7.405784 -2.36351,0 -4.25121,3.318074 -4.25121,7.405784 V 82.44597 c 0,-4.73283 3.76886,-8.501208 8.46318,-8.501208 4.69106,0 8.49181,3.768378 8.49181,8.501208 v 47.2961 c 2.24169,4.27573 3.86696,10.12034 3.86696,18.64731 0,22.93205 1.37348,34.9082 2.81318,41.32672 z m 4.20951,140.202355 c -1.52635,-3.00856 -3.80076,-6.01058 -7.18536,-7.67099 -1.62528,-0.85598 -3.0658,-2.29648 -4.37549,-4.02067 -4.56024,-6.06779 -7.02268,-18.07585 -7.82061,-38.44982 -0.224,-5.30502 -0.3548,-10.92234 -0.3548,-17.40463 0,-3.73699 -0.50445,-15.58153 -6.70302,-16.18815 -3.28572,2.83851 -7.66773,20.08699 -7.66773,34.26319 0,9.16543 -2.29566,14.02245 -6.41853,17.24193 -2.39547,1.85502 -5.362252,3.22848 -8.910219,4.47359 -1.111367,0.41532 -2.232299,0.79874 -3.474553,1.18545 l -3.228717,1.02191 -0.386371,0.15289 c -0.383262,0.1308 -0.66744,0.28776 -0.922923,0.54939 -1.053892,0.7922 -1.536077,2.58342 -1.976815,7.75683 -0.517341,6.16672 -1.571234,19.09777 -17.152433,19.09777 -5.460852,0 -6.738261,0.95816 -7.089557,1.75935 -0.891041,2.16486 -2.998743,7.30965 -10.985719,7.30965 -9.066454,0 -11.592496,-7.53937 -12.802865,-11.14474 -0.287448,-0.92299 -0.769635,-2.32836 -0.581191,-2.49431 -1.27422,0.86823 -2.803921,6.48555 -2.83589,11.79059 0,22.25184 14.338946,29.75687 56.84155,29.75687 5.14152,0 6.607371,-0.63521 9.899857,-2.04384 4.276226,-1.84601 10.187056,-4.4041 25.197136,-6.8976 20.85629,-3.47456 21.71554,-19.12312 21.81118,-20.27587 0,-0.0669 -0.48152,-4.97881 -2.87693,-9.76879 m 37.05099,-104.87587 c 0,-9.22901 -4.85374,-26.381434 -26.79656,-28.20488 v 101.75173 c 26.50308,-1.6032 26.79656,-19.38474 26.79656,-28.71287 z"
             style="fill:#ea0000;fill-opacity:1;fill-rule:nonzero;stroke:#ff0000;stroke-width:0.68372673;stroke-miterlimit:4;stroke-dasharray:none"
             id="path860"
             inkscape:connector-curvature="0"
             inkscape:export-filename="/home/you/Pictures/PCB/beer.png"
             inkscape:export-xdpi="600"
             inkscape:export-ydpi="600" /></g></g></g></g></svg>