<?xml version="1.0" encoding="UTF-8" standalone="no"?>
<!-- Created with Inkscape (http://www.inkscape.org/) -->

<svg
   xmlns:dc="http://purl.org/dc/elements/1.1/"
   xmlns:cc="http://creativecommons.org/ns#"
   xmlns:rdf="http://www.w3.org/1999/02/22-rdf-syntax-ns#"
   xmlns:svg="http://www.w3.org/2000/svg"
   xmlns="http://www.w3.org/2000/svg"
   xmlns:sodipodi="http://sodipodi.sourceforge.net/DTD/sodipodi-0.dtd"
   xmlns:inkscape="http://www.inkscape.org/namespaces/inkscape"
   version="1.1"
   id="svg2"
   xml:space="preserve"
   width="29.879025"
   height="45.354332"
   viewBox="0 0 29.879025 45.354332"
   sodipodi:docname="bigfoot.svg"
   inkscape:version="0.92.3 (2405546, 2018-03-11)"><metadata
     id="metadata8"><rdf:RDF><cc:Work
         rdf:about=""><dc:format>image/svg+xml</dc:format><dc:type
           rdf:resource="http://purl.org/dc/dcmitype/StillImage" /><dc:title></dc:title></cc:Work></rdf:RDF></metadata><defs
     id="defs6"><clipPath
       clipPathUnits="userSpaceOnUse"
       id="clipPath18"><path
         d="M 54,108 C 24.177,108 0,83.823 0,54 v 0 C 0,24.177 24.177,0 54,0 v 0 c 29.823,0 54,24.177 54,54 v 0 c 0,29.823 -24.177,54 -54,54 z"
         id="path16"
         inkscape:connector-curvature="0" /></clipPath><clipPath
       clipPathUnits="userSpaceOnUse"
       id="clipPath58"><path
         d="M 27.36,85.757 V 7.018 c 1.356,-0.771 2.748,-1.484 4.174,-2.137 v 0 h 44.932 c 1.426,0.653 2.818,1.366 4.174,2.137 v 0 78.739 z"
         id="path56"
         inkscape:connector-curvature="0" /></clipPath><clipPath
       clipPathUnits="userSpaceOnUse"
       id="clipPath74"><path
         d="M 0,0 H 108 V 108 H 0 Z"
         id="path72"
         inkscape:connector-curvature="0" /></clipPath><clipPath
       clipPathUnits="userSpaceOnUse"
       id="clipPath110"><path
         d="M 0,0 H 108 V 108 H 0 Z"
         id="path108"
         inkscape:connector-curvature="0" /></clipPath></defs><sodipodi:namedview
     pagecolor="#ffffff"
     bordercolor="#666666"
     borderopacity="1"
     objecttolerance="10"
     gridtolerance="10"
     guidetolerance="10"
     inkscape:pageopacity="0"
     inkscape:pageshadow="2"
     inkscape:window-width="1920"
     inkscape:window-height="1143"
     id="namedview4"
     showgrid="false"
     inkscape:zoom="8.7277355"
     inkscape:cx="17.513991"
     inkscape:cy="20.995971"
     inkscape:window-x="0"
     inkscape:window-y="27"
     inkscape:window-maximized="1"
     inkscape:current-layer="g10"
     fit-margin-top="0"
     fit-margin-left="0"
     fit-margin-right="0"
     fit-margin-bottom="0" /><g
     id="g10"
     inkscape:groupmode="layer"
     inkscape:label="BSides Coin 1.5x1.5_multi font"
     transform="matrix(1.3333333,0,0,-1.3333333,-57.060488,94.677166)"><g
       id="g12"
       transform="translate(4.9841108,0.17186589)"><g
         id="g14"
         clip-path="url(#clipPath18)"><g
           id="g20"
           transform="translate(54.019,36.2582)" /><g
           id="g24"
           transform="translate(60.1918,33.0018)"><g
             id="g971" /></g><g
           id="g28"
           transform="translate(51.7384,45.2213)" /><g
           id="g32"
           transform="translate(58.6275,48.3116)" /><g
           id="g36"
           transform="translate(57.6594,43.0992)" /><g
           id="g40"
           transform="translate(52.8634,46.9339)" /><g
           id="g44"
           transform="translate(50.331,43.0992)" /><g
           id="g48"
           transform="translate(61.8224,54.1362)" /></g></g><g
       id="g52"
       transform="matrix(0.42059438,0,0,0.42059438,31.287905,34.939206)"><g
         id="g54"
         clip-path="url(#clipPath58)"><g
           id="g60"
           transform="translate(47.1055,52.8718)" /><g
           id="g64"
           transform="translate(77.1882,58.2865)"><g
             id="g992"><path
               inkscape:connector-curvature="0"
               id="path22"
               style="fill:#100f0d;fill-opacity:1;fill-rule:nonzero;stroke:none"
               d="m 0,0 c -0.359,0.37 -3.121,2.784 -10.184,-2.04 0,0 7.108,2.12 10.184,0.706 C 3.076,0.08 10.183,-2.04 10.183,-2.04 3.121,2.784 0.359,0.37 0,0"
               transform="translate(-23.1692,-22.0283)" /><path
               d="M 0,0 C -2.711,0.649 -5.838,0.656 -6.173,0.655 -6.507,0.656 -9.634,0.649 -12.345,0 c 0,0 -0.998,-0.467 -2.182,0.655 0,0 0.623,-1.434 2.275,-1.185 0,0 4.365,0.281 5.923,0.063 h 0.312 C -4.458,-0.249 -0.094,-0.53 -0.094,-0.53 1.559,-0.779 2.182,0.655 2.182,0.655 0.997,-0.467 0,0 0,0"
               style="fill:#100f0d;fill-opacity:1;fill-rule:nonzero;stroke:none"
               id="path26"
               inkscape:connector-curvature="0"
               transform="translate(-16.9964,-25.2847)" /><path
               inkscape:connector-curvature="0"
               id="path30"
               style="fill:#100f0d;fill-opacity:1;fill-rule:nonzero;stroke:none"
               d="m 0,0 c 0,0 -0.745,2.234 -2.085,1.787 0,0 -1.043,-0.781 1.117,-2.568 0,0 1.08,-0.969 3.128,-1.043 h 0.194 c 2.048,0.074 3.127,1.043 3.127,1.043 2.16,1.787 1.118,2.568 1.118,2.568 C 5.259,2.234 4.514,0 4.514,0 3.955,-1.303 2.28,-0.968 2.28,-0.968 H 2.159 C 2.159,-0.968 0.558,-1.303 0,0"
               transform="translate(-25.4498,-13.0652)" /><path
               inkscape:connector-curvature="0"
               id="path34"
               style="fill:#100f0d;fill-opacity:1;fill-rule:nonzero;stroke:none"
               d="M 0,0 C -2.941,1.043 -3.5,-1.378 -3.5,-1.378 -2.457,0.335 0,0 0,0"
               transform="translate(-18.5607,-9.9749)" /><path
               inkscape:connector-curvature="0"
               id="path38"
               style="fill:#100f0d;fill-opacity:1;fill-rule:nonzero;stroke:none"
               d="M 0,0 C 3.983,1.303 1.862,4.17 1.862,4.17 2.904,1.34 0,0 0,0"
               transform="translate(-19.5288,-15.1873)" /><path
               inkscape:connector-curvature="0"
               id="path42"
               style="fill:#100f0d;fill-opacity:1;fill-rule:nonzero;stroke:none"
               d="m 0,0 c 0,0 -0.559,2.42 -3.5,1.378 0,0 2.457,0.334 3.5,-1.378"
               transform="translate(-24.3248,-11.3526)" /><path
               inkscape:connector-curvature="0"
               id="path46"
               style="fill:#100f0d;fill-opacity:1;fill-rule:nonzero;stroke:none"
               d="M 0,0 C 0,0 -2.904,1.34 -1.862,4.17 -1.862,4.17 -3.984,1.303 0,0"
               transform="translate(-26.8572,-15.1873)" /><path
               inkscape:connector-curvature="0"
               id="path50"
               style="fill:#100f0d;fill-opacity:1;fill-rule:nonzero;stroke:none"
               d="m 0,0 c 1.107,-0.384 0.759,-1.277 0.759,-1.277 -0.234,-0.783 -0.786,-0.982 -1.31,-0.971 0.327,0.203 0.52,0.573 0.459,0.96 -0.083,0.523 -0.597,0.878 -1.147,0.792 -0.549,-0.087 -0.929,-0.582 -0.847,-1.105 0.008,-0.049 0.022,-0.095 0.037,-0.14 -0.607,0.353 -1.034,0.489 -1.034,0.489 C -1.533,0.875 0,0 0,0 m -6.033,-1.445 c 0.396,-0.175 2.525,0.141 4.286,-1.202 0,0 2.485,-2.052 6.37,-2.348 0,0 -2.884,0.593 -4.854,2.028 0,0 2.229,0.276 2.225,3.061 0,0 -2.602,1.555 -4.851,-0.124 0,0 -1.174,0.373 -0.246,1.566 0,0 0.679,1.014 2.764,1.062 0,0 -2.984,0.787 -4.51,-2.383 l 0.378,1.594 c 0,0 -1.479,-1.024 -1.469,-2.92 -0.192,-0.055 -0.206,-0.273 -0.093,-0.334"
               transform="translate(-15.3658,-4.1503001)" /><path
               inkscape:connector-curvature="0"
               id="path62"
               style="fill:#100f0d;fill-opacity:1;fill-rule:nonzero;stroke:none"
               d="m 0,0 c -0.071,-0.385 0.112,-0.76 0.433,-0.972 -0.524,0.003 -1.07,0.217 -1.283,1.006 0,0 -0.325,0.901 0.791,1.256 0,0 1.556,0.835 3.049,-1.333 0,0 -0.43,-0.124 -1.046,-0.461 0.016,0.045 0.032,0.09 0.041,0.138 C 2.081,0.155 1.714,0.661 1.167,0.762 0.619,0.862 0.096,0.521 0,0 M 5.935,-0.312 C 6.05,-0.254 6.041,-0.036 5.85,0.024 5.91,1.919 4.458,2.981 4.458,2.981 L 4.794,1.378 C 3.352,4.587 0.348,3.879 0.348,3.879 2.432,3.775 3.083,2.744 3.083,2.744 3.981,1.528 2.796,1.185 2.796,1.185 0.592,2.922 -2.05,1.436 -2.05,1.436 c -0.077,-2.784 2.145,-3.118 2.145,-3.118 -2.007,-1.383 -4.906,-1.901 -4.906,-1.901 3.892,0.195 6.429,2.181 6.429,2.181 1.779,1.285 4.036,0.974 4.317,1.09"
               transform="translate(-30.0827,-5.4146997)" /><path
               inkscape:connector-curvature="0"
               id="path66"
               style="fill:#100f0d;fill-opacity:1;fill-rule:nonzero;stroke:none"
               d="m 0,0 c 3.093,8.121 -2.321,8.993 -2.321,8.993 -4.549,1.183 -6.19,3.364 -6.19,3.364 1.418,-0.85 6.541,-2.331 6.541,-2.331 C 4.285,7.845 0,0 0,0 m -1.656,-19.829 c 0,0 3.365,5.701 1.496,11.777 0,0 3.271,-7.571 -1.496,-11.777 m -3.209,-1.23 c 0.288,-1.562 0.191,-3.324 -0.732,-5.119 -1.386,-5.478 -0.43,-6.822 -0.213,-7.043 0.014,-0.012 0.027,-0.025 0.041,-0.037 0,0 -0.015,0.011 -0.041,0.037 -1.621,1.372 -1.036,4.266 -0.59,5.759 -0.008,-0.011 -0.015,-0.022 -0.023,-0.032 0,0 -1.776,-3.178 -0.374,-5.795 0,0 1.496,-1.777 -1.589,-4.861 0,0 -1.215,-0.748 -0.935,-2.617 0,0 -1.122,1.588 0.467,3.645 0,0 1.87,2.056 1.309,3.552 0,0 -2.056,4.019 0.467,6.637 0,0 4.113,4.673 -0.654,11.497 0,0 1.833,-1.922 2.638,-4.669 0.86,0.819 4.117,4.19 4.279,8.408 0,0 0.087,-6.025 -4.05,-9.362 M -5.21,-31.625 c -0.057,-0.051 -0.091,-0.075 -0.091,-0.075 0.032,0.024 0.06,0.05 0.091,0.075 0.409,0.36 2.002,2.066 0.937,6 0,0 2.103,-3.571 -0.937,-6 M -9.481,-43.06 c -0.013,-0.03 -0.027,-0.045 -0.027,-0.045 0.011,0.016 0.018,0.03 0.027,0.045 0.058,0.132 0.116,0.578 -0.868,1.638 0,0 -2.056,2.057 0.561,4.581 0,0 -1.402,-1.59 0.187,-4.3 0,0 0.721,-0.996 0.12,-1.919 m -3.147,15.274 c 3.071,-3.079 2.372,-5.364 2.372,-5.364 l 0.888,1.216 c -0.327,-2.571 -1.916,-4.113 -1.916,-4.113 1.715,4.964 -1.144,8.054 -1.344,8.261 m 2.746,4.779 c 3.085,-2.337 0.374,-4.814 0.374,-4.814 1.262,2.991 -0.374,4.814 -0.374,4.814 m 0.795,3.879 c 4.3,-0.982 1.963,-5.188 1.963,-5.188 0.934,3.926 -1.963,5.188 -1.963,5.188 m -4.122,-6.687 c 0,0 0.825,-2.404 -1.786,0.138 0,0 0.412,-2.611 -1.649,-1.168 0,0 0.068,-2.199 -1.512,-0.824 l -0.755,0.687 0.068,-1.374 c 0,0 -0.275,-0.756 -1.511,1.305 0,0 0.275,-3.572 -1.031,-0.138 0,0 -1.03,-4.053 -1.786,0.275 h -0.034 c -0.277,-1.589 -0.592,-2.047 -0.879,-1.992 -0.215,-0.209 -3.72,-3.757 -0.457,-10.646 0,0 2.057,-4.02 0.28,-6.263 0,0 1.122,2.991 -1.402,5.889 0,0 -2.446,2.897 -0.733,8.647 -3.988,-1.899 -2.866,-8.522 -2.866,-8.522 -1.755,7.95 2.521,9.242 3.573,9.438 0.436,0.492 0.965,0.98 1.603,1.457 -0.494,0.099 -0.906,1.717 -0.906,1.717 -1.305,-3.434 -1.03,0.138 -1.03,0.138 -1.237,-2.061 -1.512,-1.305 -1.512,-1.305 l 0.069,1.374 -0.756,-0.687 c -0.486,-0.423 -0.815,-0.507 -1.039,-0.421 -4.323,-3.289 -0.983,-10.527 -0.983,-10.527 -4.763,6.792 0.379,10.171 0.973,10.53 -0.494,0.201 -0.462,1.242 -0.462,1.242 -2.061,-1.443 -1.649,1.168 -1.649,1.168 -2.611,-2.542 -1.786,-0.138 -1.786,-0.138 -0.962,-1.03 -0.825,1.787 -0.825,1.787 -0.48,-1.581 -1.786,-2.336 -1.786,-2.336 -0.004,0.027 -0.005,0.053 -0.009,0.08 1.451,3.536 5.59,5.987 5.59,5.987 -2.889,-1.571 -4.457,-2.812 -5.289,-3.619 0.272,0.604 0.601,0.919 0.601,0.919 -1.443,-0.619 -1.03,0.137 -1.03,0.137 0.343,0.756 1.374,1.099 1.374,1.099 l -1.581,0.343 c 0.138,0.825 1.306,1.65 1.306,1.65 l -1.443,-0.275 c 0,1.099 1.237,1.718 1.237,1.718 -0.412,0.755 -1.855,-0.138 -1.855,-0.138 0.412,1.374 1.923,1.511 1.923,1.511 -0.206,0.55 -2.129,0.344 -2.129,0.344 0.206,0.756 0.961,0.756 0.961,0.756 -0.343,0.618 -2.061,-0.069 -2.061,-0.069 0.481,0.275 0.687,1.236 0.687,1.236 -0.412,-0.412 -1.305,-0.343 -1.305,-0.343 0.618,0.481 0.824,1.649 0.824,1.649 -0.153,-0.128 -0.316,-0.151 -0.46,-0.13 2.095,2.689 5.904,2.747 5.904,2.747 -2.855,0.38 -4.681,-0.555 -5.741,-1.463 1.106,1.494 1.946,2.459 1.946,2.459 -1.129,-0.599 -2.005,-1.173 -2.683,-1.714 0.601,1.056 0.347,2.017 0.347,2.017 l -0.755,0.137 c 0.755,0.275 1.168,1.718 1.168,1.718 -0.275,-0.137 -0.756,0.068 -0.756,0.068 0.824,0.688 1.924,2.405 1.924,2.405 l -1.374,-0.275 c 0.755,0.481 1.717,2.062 1.717,2.062 l -1.237,-0.069 c 0.962,0.755 1.443,1.236 1.443,1.236 l -0.962,0.207 c 0.894,0.824 1.581,0.48 1.581,0.48 -0.344,0.344 -1.581,0.962 -1.581,0.962 1.512,0.825 2.817,-0.068 2.817,-0.068 -0.687,1.168 -2.404,1.374 -2.404,1.374 0.014,0.005 0.029,0.009 0.043,0.015 -2.913,-0.462 -3.516,-2.266 -3.516,-2.266 0.843,3.373 3.918,2.587 4.511,2.401 1.401,-0.093 2.603,-1.25 2.603,-1.25 0,0 -1.305,1.581 -2.817,2.13 0,0 2.267,0.069 3.367,-0.206 0,0 -0.138,0.687 -1.031,1.374 l 1.717,0.138 -1.58,0.893 c 0,0 1.855,0.137 3.298,-0.55 0,0 -0.618,0.756 -1.03,1.168 0,0 2.404,0 4.671,-1.855 l -0.961,1.649 c 0,0 0.686,-0.137 1.923,-0.55 0,0 -0.962,2.198 -2.542,3.092 0,0 2.542,-0.412 2.954,-1.787 0,0 -0.068,3.229 -1.099,4.466 0,0 1.787,-1.717 1.924,-2.405 0,0 0.481,1.787 -0.137,2.955 0,0 0.535,-0.635 0.983,-1.38 -1.216,6.399 -7.766,5.825 -7.766,5.825 0.085,0.042 0.17,0.082 0.253,0.12 -0.048,-0.009 -0.095,-0.016 -0.143,-0.026 0,0 0.158,0.068 0.429,0.149 4.869,1.979 6.958,-3.192 7.405,-4.52 0.129,0.983 -0.786,2.299 -0.786,2.299 0.435,-0.475 0.663,-0.616 0.772,-0.589 -0.418,1.532 -1.984,5.673 -6.775,5.916 0,0 5.871,0.602 6.795,-4.541 0.142,0.868 -0.001,1.68 -0.117,2.136 -1.046,1.687 -4.553,6.576 -8.409,3.45 0,0 5.025,5.195 8.346,-2.979 0.485,0.846 0.414,1.979 0.156,3.026 -0.01,-0.472 -0.056,-0.984 -0.151,-1.543 0,0 -0.436,5.359 -2.68,6.668 0,0 1.966,-0.647 2.622,-3.187 0.342,-0.602 0.501,-1.253 0.501,-1.253 l 0.357,1.416 v 0.014 l 0.002,-0.007 0.002,0.01 v -0.02 l 0.358,-1.416 c 0,0 0.138,0.575 0.439,1.144 0.626,2.635 2.651,3.299 2.651,3.299 -0.737,-0.43 -1.278,-1.299 -1.674,-2.27 0.006,0.002 0.011,0.006 0.017,0.008 0,0 -0.019,-0.033 -0.052,-0.093 -0.14,-0.354 -0.26,-0.72 -0.365,-1.082 0.977,1.835 3.444,4.206 8.976,3.712 0,0 -5.588,1.008 -9.17,-4.455 -0.318,-1.353 -0.411,-2.488 -0.411,-2.488 -0.087,0.508 -0.134,0.979 -0.149,1.416 -0.23,-0.998 -0.28,-2.06 0.166,-2.869 3.321,8.131 8.333,2.949 8.333,2.949 -3.789,3.072 -7.241,-1.597 -8.352,-3.36 -0.138,-0.504 -0.357,-1.603 -0.035,-2.703 0,0 0.224,-0.683 0.685,-0.312 0,0 -0.492,-1.072 -0.755,-2.543 0.261,0.846 0.57,1.557 0.913,2.15 l 0.004,0.006 c 0.045,0.077 0.089,0.154 0.136,0.228 2.537,4.058 6.719,2.234 6.719,2.234 -4.273,1.198 -6.934,-3.18 -7.691,-4.647 0.073,-0.008 0.582,0.718 0.711,0.783 0,0 -0.465,-0.926 -0.55,-1.316 0.275,0.381 0.495,0.641 0.495,0.641 -0.619,-1.168 -0.138,-2.955 -0.138,-2.955 0.138,0.688 1.923,2.405 1.923,2.405 -1.03,-1.237 -1.099,-4.466 -1.099,-4.466 0.412,1.375 2.954,1.787 2.954,1.787 -1.58,-0.894 -2.542,-3.092 -2.542,-3.092 1.237,0.413 1.924,0.55 1.924,0.55 L -19.53,2.766 c 2.268,1.855 4.672,1.855 4.672,1.855 -0.412,-0.412 -1.031,-1.168 -1.031,-1.168 1.443,0.687 3.298,0.55 3.298,0.55 l -1.58,-0.893 1.718,-0.138 c -0.893,-0.687 -1.031,-1.374 -1.031,-1.374 1.1,0.275 3.367,0.206 3.367,0.206 -1.512,-0.549 -2.817,-2.13 -2.817,-2.13 0,0 1.416,1.364 2.965,1.25 0.592,0.186 3.668,0.973 4.512,-2.401 0,0 -0.685,2.047 -4.118,2.337 0.094,-0.022 0.188,-0.05 0.282,-0.086 0,0 -1.717,-0.206 -2.405,-1.374 0,0 1.306,0.893 2.817,0.068 0,0 -1.236,-0.618 -1.58,-0.962 0,0 0.687,0.344 1.58,-0.48 l -0.961,-0.207 c 0,0 0.481,-0.481 1.442,-1.236 l -1.236,0.069 c 0,0 0.961,-1.581 1.717,-2.062 l -1.374,0.275 c 0,0 1.1,-1.717 1.924,-2.405 0,0 -0.481,-0.205 -0.756,-0.068 0,0 0.412,-1.443 1.168,-1.718 l -0.756,-0.137 c 0,0 -0.274,-1.031 0.413,-2.13 l -0.032,0.007 c -0.695,0.572 -1.61,1.182 -2.814,1.82 0,0 0.647,-0.743 1.552,-1.933 -1.102,0.697 -2.731,1.243 -5.027,0.937 0,0 3.066,-0.046 5.21,-1.998 0.121,-0.11 0.238,-0.226 0.353,-0.349 0.003,0.003 0.006,0.005 0.009,0.007 0.086,-0.096 0.169,-0.197 0.253,-0.298 0.042,-0.048 0.079,-0.092 0.104,-0.122 -0.003,-10e-4 -0.007,-0.002 -0.01,-0.003 -0.186,-0.074 -0.417,-0.12 -0.654,-0.05 0.02,-0.082 0.048,-0.183 0.085,-0.297 0.122,-0.378 0.34,-0.88 0.696,-1.156 0,0 -0.894,-0.069 -1.306,0.343 0,0 0.207,-0.961 0.688,-1.236 0,0 -1.718,0.687 -2.062,0.069 0,0 0.756,0 0.962,-0.756 0,0 -1.603,0.557 -2.226,-0.179 0,0 2.307,-0.443 2.02,-1.676 0,0 -1.443,0.893 -1.855,0.138 0,0 1.237,-0.619 1.237,-1.718 l -1.443,0.275 c 0,0 1.168,-0.825 1.305,-1.65 l -1.58,-0.343 c 0,0 1.031,-0.343 1.374,-1.099 0,0 0.606,-0.675 -0.836,-0.056 0,0 0.133,-0.393 0.404,-0.994 -0.363,0.89 -3.199,3.273 -4.902,3.438 0,0 5.445,-3.392 5.207,-5.805 -0.004,-0.03 -0.006,-0.057 -0.01,-0.087 0,0 -1.306,0.755 -1.786,2.336 0,0 0.137,-2.817 -0.825,-1.787 m -2.562,-12.802 c 0,0 3.366,7.29 -1.028,10.562 0,0 7.478,-4.954 1.028,-10.562 m 1.693,-7.928 c 0.096,0.166 0.769,1.528 -1.506,3.628 0,0 -1.402,1.215 1.963,5.234 0,0 -1.869,-2.337 -1.121,-4.767 0,0 2.044,-1.952 0.664,-4.095 m -2.925,9.852 c -2.288,-3.71 -1.759,-8.655 -1.759,-8.655 -2.449,3.021 0.876,7.609 1.758,8.723 2.09,3.647 -0.979,6.42 -0.979,6.42 4.074,-2.567 1.551,-5.833 0.98,-6.488 m 0.017,-8.187 c 0.841,-2.664 -0.701,-3.505 -0.701,-3.505 1.028,1.775 0,3.271 0,3.271 -0.935,2.617 1.262,4.159 1.262,4.159 -1.449,-1.916 -0.561,-3.925 -0.561,-3.925 m -4.767,-0.935 c -1.776,2.243 0.28,6.263 0.28,6.263 5.048,6.356 -0.467,10.656 -0.467,10.656 6.637,-4.954 1.589,-11.03 1.589,-11.03 -2.523,-2.898 -1.402,-5.889 -1.402,-5.889 m -0.701,-5.001 c 0,0 1.215,1.309 1.589,5.608 0,0 0.935,-3.598 -1.589,-5.608 m -0.888,11.077 c 0.935,3.49 -0.062,5.047 -0.062,5.047 -1.496,2.369 0.374,4.861 0.374,4.861 -0.873,-2.244 0.623,-4.487 0.623,-4.487 1.371,-2.804 -0.935,-5.421 -0.935,-5.421 m -1.807,-5.469 c 0.374,-4.299 1.59,-5.608 1.59,-5.608 -2.524,2.01 -1.59,5.608 -1.59,5.608 m -3.178,0.094 c 0,0 -1.028,-1.496 0,-3.271 0,0 -1.542,0.841 -0.701,3.505 0,0 0.888,2.009 -0.56,3.925 0,0 2.196,-1.542 1.261,-4.159 m -2.103,2.197 c -2.274,-2.1 -1.601,-3.462 -1.506,-3.628 -1.38,2.143 0.665,4.095 0.665,4.095 0.748,2.43 -1.122,4.767 -1.122,4.767 3.365,-4.019 1.963,-5.234 1.963,-5.234 m -3.131,0.42 c 0,0 0.514,1.636 0.327,2.571 0,0 0.888,-1.356 -0.327,-2.571 m -3.085,10.563 0.888,-1.216 c 0,0 -0.699,2.285 2.373,5.364 -0.197,-0.204 -3.06,-3.295 -1.345,-8.261 0,0 -1.589,1.542 -1.916,4.113 m 0.982,-9.488 c -0.985,-1.06 -0.926,-1.506 -0.869,-1.638 0.01,-0.015 0.017,-0.029 0.027,-0.045 0,0 -0.013,0.015 -0.027,0.045 -0.6,0.923 0.121,1.919 0.121,1.919 1.589,2.71 0.187,4.3 0.187,4.3 2.617,-2.524 0.561,-4.581 0.561,-4.581 m -3.225,17.106 c 0,0 -2.337,4.206 1.963,5.188 0,0 -2.898,-1.262 -1.963,-5.188 m 2.383,-3.505 c 0,0 -2.71,2.477 0.374,4.814 0,0 -1.635,-1.823 -0.374,-4.814 m -1.121,-10.329 c -3.085,3.084 -1.589,4.861 -1.589,4.861 1.402,2.617 -0.374,5.795 -0.374,5.795 -4.487,5.982 1.308,12.058 1.308,12.058 -4.767,-6.824 -0.654,-11.497 -0.654,-11.497 2.524,-2.618 0.468,-6.637 0.468,-6.637 -0.561,-1.496 1.308,-3.552 1.308,-3.552 1.589,-2.057 0.467,-3.645 0.467,-3.645 0.281,1.869 -0.934,2.617 -0.934,2.617 m -3.177,6.525 c -3.039,2.429 -0.936,6 -0.936,6 -1.066,-3.934 0.528,-5.64 0.936,-6 0.031,-0.025 0.06,-0.051 0.092,-0.075 0,0 -0.034,0.024 -0.092,0.075 m 3.35,30.531 c 0.124,0.007 0.201,-0.009 0.201,-0.009 -0.07,0.005 -0.135,0.007 -0.201,0.009 -0.461,-0.028 -1.588,-0.39 -1.98,-3.188 0,0 -0.891,3.274 1.98,3.188 m -1.041,-5.05 c 0.017,0.006 0.027,0.009 0.027,0.009 -0.009,-0.003 -0.018,-0.007 -0.027,-0.009 -0.233,-0.082 -1.98,-0.766 -2.591,-3.076 0,0 -0.981,-3.131 -0.14,-5.375 0,0 -2.561,6.754 2.731,8.451 m -5.675,2.485 c 0,0 -2.244,6.263 5.982,9.348 0,0 -5.328,-2.711 -5.422,-8.413 0,0 1.496,2.431 2.711,2.991 0,0 -2.711,-2.336 -2.711,-6.823 0,0 -0.373,-5.608 2.992,-10.843 0,0 -5.609,6.73 -3.552,13.74 m -1.683,-4.393 c -1.869,-6.076 1.496,-11.777 1.496,-11.777 -4.768,4.206 -1.496,11.777 -1.496,11.777 m 1.757,17.884 c 0,0 4.296,0.968 5.892,1.649 0.107,0.21 0.157,0.337 0.157,0.337 0.005,-0.089 0.007,-0.177 0.006,-0.264 0.026,0.013 0.053,0.025 0.077,0.037 0,0 -0.026,-0.029 -0.079,-0.081 -0.057,-2.678 -2.826,-3.881 -2.826,-3.881 -4.54,-1.714 -3.95,-8.418 -3.95,-8.418 -1.428,6.631 2.97,8.895 2.97,8.895 1.953,0.709 3.058,2.305 3.528,3.155 -0.68,-0.567 -2.382,-1.724 -5.507,-2.344 0,0 -5.02,-0.536 -2.603,-7.736 0,0 -3.526,7.009 2.335,8.651 m 7.859,5.254 c 0.004,0.015 0.009,0.029 0.012,0.044 0,0 -0.002,-0.016 -0.012,-0.044 -0.609,-2.761 -5.97,-2.947 -5.97,-2.947 5.243,1.581 5.891,2.717 5.97,2.947 m 2.162,0.137 c 4.86,4.051 8.163,-0.062 8.163,-0.062 -3.926,2.493 -8.163,0.062 -8.163,0.062 m 0.124,-1.994 c 5.173,2.555 8.351,-2.617 8.351,-2.617 -4.3,4.175 -8.351,2.617 -8.351,2.617 m -1.557,-2.306 c 4.112,3.241 8.724,-1.807 8.724,-1.807 -4.923,3.989 -8.724,1.807 -8.724,1.807 m 0.124,-0.934 c 4.3,2.679 9.098,-3.428 9.098,-3.428 -4.923,4.986 -9.098,3.428 -9.098,3.428 m -2.368,-5.484 c 3.614,4.113 9.472,0.685 9.472,0.685 -6.169,2.244 -9.472,-0.685 -9.472,-0.685 m 3.801,-2.68 c 0,0 -1.682,0.748 -3.302,0.063 0,0 1.745,1.62 3.302,-0.063 m -6.294,-0.747 c 2.057,4.985 8.413,3.365 8.413,3.365 -6.356,0.062 -8.413,-3.365 -8.413,-3.365 m 11.311,21.431 c 0,0 -5.328,1.87 -8.132,-3.832 0,0 0.467,6.73 8.132,3.832 m 4.05,-3.079 c -2.29,4.767 -5.141,5.515 -5.141,5.515 4.159,-0.655 5.141,-5.515 5.141,-5.515 m 17.059,-0.753 c -2.805,5.702 -9.254,3.832 -9.254,3.832 7.665,2.898 9.254,-3.832 9.254,-3.832 M -17.173,6.998 c 0,0 5.92,3.489 8.787,-0.312 0,0 -2.555,2.617 -8.787,0.312 m 6.543,2.991 c 0,0 -4.175,1.558 -9.098,-3.428 0,0 4.799,6.107 9.098,3.428 m -9.783,0.623 c 0,0 3.178,5.172 8.35,2.617 0,0 -4.05,1.558 -8.35,-2.617 m 9.373,1.74 c 0,0 -4.161,1.374 -8.184,-3.52 0,0 3.505,5.87 8.184,3.52 m -10.573,1.095 c 0.982,5.422 5.282,4.627 5.282,4.627 -3.973,-0.514 -5.282,-4.627 -5.282,-4.627 m 9.675,1.776 c 0,0 -4.238,2.431 -8.163,-0.062 0,0 3.302,4.113 8.163,0.062 M -17.733,5.19 c 0,0 5.857,3.428 9.472,-0.685 0,0 -3.303,2.929 -9.472,0.685 M -8.76,1.888 c -1.62,0.685 -3.303,-0.063 -3.303,-0.063 1.558,1.683 3.303,0.063 3.303,0.063 m 2.991,-0.81 c 0,0 -2.056,3.427 -8.413,3.365 0,0 6.357,1.62 8.413,-3.365 m 1.055,-15.46 c -0.045,-0.137 -0.073,-0.213 -0.073,-0.213 0.026,0.07 0.05,0.141 0.073,0.213 m 0,0 c 0.708,2.223 -0.214,5.162 -0.214,5.162 -0.59,2.235 -2.246,2.948 -2.563,3.066 4.699,-1.531 3.156,-7.072 2.777,-8.228 m -2.805,8.238 c -0.008,0.002 -0.017,0.006 -0.026,0.009 0,0 0.01,-0.003 0.026,-0.009 m -1.04,5.05 c -0.066,-0.002 -0.131,-0.004 -0.201,-0.009 0,0 0.076,0.016 0.201,0.009 2.871,0.086 1.98,-3.188 1.98,-3.188 -0.392,2.798 -1.519,3.16 -1.98,3.188 m 3.071,7.718 c 0,0 9.616,-0.556 3.921,-8.567 -0.031,-1.029 -0.276,-1.716 -0.276,-1.716 2.056,-7.01 -3.552,-13.74 -3.552,-13.74 3.365,5.235 2.991,10.843 2.991,10.843 0,4.487 -2.711,6.823 -2.711,6.823 1.216,-0.56 2.711,-2.991 2.711,-2.991 -0.093,5.702 -5.421,8.413 -5.421,8.413 5.491,-2.059 6.316,-5.534 6.258,-7.617 0.557,0.916 3.304,6.086 -3.921,8.552 m 1.682,5.515 c 0,0 -5.362,0.186 -5.971,2.947 -0.01,0.028 -0.011,0.044 -0.011,0.044 0.003,-0.015 0.008,-0.029 0.011,-0.044 0.079,-0.23 0.728,-1.366 5.971,-2.947 M 2.455,-4.157 c -1.06,2.742 -0.499,5.484 -0.499,5.484 1.995,3.677 0.125,6.107 0.125,6.107 -0.627,2.315 -2.149,3.136 -2.806,3.39 -0.637,2.19 -1.485,3.747 -2.347,4.85 -0.088,3.025 -3.634,3.14 -3.634,3.14 -0.934,5.733 -6.044,6.235 -6.044,6.235 -2.057,1.932 -4.986,1.621 -4.986,1.621 -1.433,1.495 -2.991,0.436 -2.991,0.436 -1.444,0.667 -2.294,-0.697 -2.461,-1 -0.167,0.303 -1.017,1.667 -2.462,1 0,0 -1.557,1.059 -2.991,-0.436 0,0 -2.928,0.311 -4.985,-1.621 0,0 -5.11,-0.502 -6.045,-6.235 0,0 -4.033,-1.351 -4.235,-5.211 0,0 -1.058,-0.935 -1.994,-2.119 0,0 -1.747,-1.059 -2.557,-4.05 0,0 -1.87,-2.43 0.124,-6.107 0,0 0.562,-2.742 -0.498,-5.484 0,0 -2.244,-3.178 0,-7.166 0,0 0.686,-1.309 0.686,-2.867 0,0 -0.562,-3.552 2.368,-5.982 0,0 3.115,-2.493 2.617,-5.982 0,0 -0.997,-2.742 0.187,-6.107 0,0 0.623,-4.612 2.555,-5.671 0,0 2.181,-1.807 2.555,-3.116 0,0 -1.06,-2.555 0.872,-4.611 0,0 -0.187,0.374 0.249,1.433 0,0 0,-2.368 2.493,-3.24 0,0 -0.935,0.934 -1.309,2.305 0,0 1.745,-2.243 3.552,-2.305 0,0 0.499,-0.81 1.184,-0.81 0,0 0.31,-0.988 1.297,-1.12 -0.063,0.016 -0.362,0.168 -0.362,1.618 0,0 0.561,-2.119 2.493,-2.244 0,0 -0.686,1.122 -0.125,2.93 0,0 -0.125,-3.677 2.368,-5.173 0,0 -0.312,0.81 -0.374,1.995 0,0 1.237,-1.886 2.337,-3.136 1.099,1.25 2.337,3.136 2.337,3.136 -0.063,-1.185 -0.374,-1.995 -0.374,-1.995 2.493,1.496 2.368,5.173 2.368,5.173 0.561,-1.808 -0.125,-2.93 -0.125,-2.93 1.932,0.125 2.493,2.244 2.493,2.244 0,-1.45 -0.299,-1.602 -0.362,-1.618 0.987,0.132 1.297,1.12 1.297,1.12 0.685,0 1.184,0.81 1.184,0.81 1.807,0.062 3.552,2.305 3.552,2.305 -0.374,-1.371 -1.309,-2.305 -1.309,-2.305 2.492,0.872 2.492,3.24 2.492,3.24 0.436,-1.059 0.25,-1.433 0.25,-1.433 1.932,2.056 0.872,4.611 0.872,4.611 0.374,1.309 2.555,3.116 2.555,3.116 1.932,1.059 2.555,5.671 2.555,5.671 1.184,3.365 0.187,6.107 0.187,6.107 -0.498,3.489 2.617,5.982 2.617,5.982 2.929,2.43 2.368,5.982 2.368,5.982 0,1.558 0.686,2.867 0.686,2.867 2.243,3.988 0,7.166 0,7.166" /></g></g></g></g></g></svg>