<?xml version="1.0" encoding="UTF-8" standalone="no"?>
<!-- Created with Inkscape (http://www.inkscape.org/) -->

<svg
   xmlns:dc="http://purl.org/dc/elements/1.1/"
   xmlns:cc="http://creativecommons.org/ns#"
   xmlns:rdf="http://www.w3.org/1999/02/22-rdf-syntax-ns#"
   xmlns:svg="http://www.w3.org/2000/svg"
   xmlns="http://www.w3.org/2000/svg"
   xmlns:sodipodi="http://sodipodi.sourceforge.net/DTD/sodipodi-0.dtd"
   xmlns:inkscape="http://www.inkscape.org/namespaces/inkscape"
   version="1.1"
   id="svg2"
   xml:space="preserve"
   width="22.409224"
   height="34.015984"
   viewBox="0 0 22.409224 34.015984"
   sodipodi:docname="bigfoot.svg"
   inkscape:version="0.92.3 (2405546, 2018-03-11)"><metadata
     id="metadata8"><rdf:RDF><cc:Work
         rdf:about=""><dc:format>image/svg+xml</dc:format><dc:type
           rdf:resource="http://purl.org/dc/dcmitype/StillImage" /><dc:title></dc:title></cc:Work></rdf:RDF></metadata><defs
     id="defs6"><clipPath
       clipPathUnits="userSpaceOnUse"
       id="clipPath18"><path
         d="M 54,108 C 24.177,108 0,83.823 0,54 v 0 C 0,24.177 24.177,0 54,0 v 0 c 29.823,0 54,24.177 54,54 v 0 c 0,29.823 -24.177,54 -54,54 z"
         id="path16"
         inkscape:connector-curvature="0" /></clipPath><clipPath
       clipPathUnits="userSpaceOnUse"
       id="clipPath58"><path
         d="M 27.36,85.757 V 7.018 c 1.356,-0.771 2.748,-1.484 4.174,-2.137 v 0 h 44.932 c 1.426,0.653 2.818,1.366 4.174,2.137 v 0 78.739 z"
         id="path56"
         inkscape:connector-curvature="0" /></clipPath><clipPath
       clipPathUnits="userSpaceOnUse"
       id="clipPath74"><path
         d="M 0,0 H 108 V 108 H 0 Z"
         id="path72"
         inkscape:connector-curvature="0" /></clipPath><clipPath
       clipPathUnits="userSpaceOnUse"
       id="clipPath110"><path
         d="M 0,0 H 108 V 108 H 0 Z"
         id="path108"
         inkscape:connector-curvature="0" /></clipPath></defs><sodipodi:namedview
     pagecolor="#ffffff"
     bordercolor="#666666"
     borderopacity="1"
     objecttolerance="10"
     gridtolerance="10"
     guidetolerance="10"
     inkscape:pageopacity="0"
     inkscape:pageshadow="2"
     inkscape:window-width="1920"
     inkscape:window-height="1143"
     id="namedview4"
     showgrid="false"
     inkscape:zoom="22.53511"
     inkscape:cx="15.327914"
     inkscape:cy="18.453909"
     inkscape:window-x="0"
     inkscape:window-y="27"
     inkscape:window-maximized="1"
     inkscape:current-layer="g10"
     fit-margin-top="0"
     fit-margin-left="0"
     fit-margin-right="0"
     fit-margin-bottom="0" /><g
     id="g10"
     inkscape:groupmode="layer"
     inkscape:label="BSides Coin 1.5x1.5_multi font"
     transform="matrix(1.3333333,0,0,-1.3333333,-60.795206,89.007847)"><g
       id="g12"
       transform="translate(4.9841108,0.17186589)"><g
         id="g14"
         clip-path="url(#clipPath18)"><g
           id="g20"
           transform="translate(54.019,36.2582)" /><g
           id="g24"
           transform="translate(60.1918,33.0018)"><g
             id="g971" /></g><g
           id="g28"
           transform="translate(51.7384,45.2213)" /><g
           id="g32"
           transform="translate(58.6275,48.3116)" /><g
           id="g36"
           transform="translate(57.6594,43.0992)" /><g
           id="g40"
           transform="translate(52.8634,46.9339)" /><g
           id="g44"
           transform="translate(50.331,43.0992)" /><g
           id="g48"
           transform="translate(61.8224,54.1362)" /></g></g><g
       id="g52"
       transform="matrix(0.42059438,0,0,0.42059438,31.287905,34.939206)"><g
         id="g54"
         clip-path="url(#clipPath58)"><g
           id="g60"
           transform="translate(47.1055,52.8718)" /><g
           id="g64"
           transform="translate(77.1882,58.2865)"><g
             id="g992"><path
               style="fill:#100f0d;fill-opacity:1;fill-rule:nonzero;stroke:none;stroke-width:0.7499724"
               d="m -26.095516,17.356703 c -0.362799,-0.02463 -0.779937,-0.177695 -1.183236,-0.598148 0,0 -2.195078,0.234367 -3.737771,-1.21458 0,0 -3.833208,-0.375888 -4.534432,-4.675479 0,0 -3.024697,-1.0152705 -3.176191,-3.910164 0,0 -0.79209,-0.7001284 -1.494064,-1.5880958 0,0 -1.30973,-0.7945882 -1.917208,-3.0377555 0,0 -1.404025,-1.82118679 0.09142,-4.5788353 0,0 0.421455,-2.0574754 -0.373516,-4.1138997 0,0 -1.682938,-2.3819939 0,-5.3728837 0,0 0.514564,-0.983831 0.514564,-2.152287 0,0 -0.421259,-2.662371 1.77616,-4.484804 0,0 2.33771,-1.870762 1.964224,-4.487416 0,0 -0.749532,-2.055178 0.138435,-4.578835 0,0 0.468262,-3.460727 1.917208,-4.254947 0,0 1.636718,-1.353415 1.917208,-2.335128 0,0 -0.795947,-1.916344 0.653,-3.458288 0,0 -0.141536,0.279312 0.185452,1.073532 0,0 5.1e-4,-1.775183 1.870192,-2.42916 0,0 -0.701623,0.700932 -0.982112,1.729144 0,0 1.309039,-1.682645 2.664239,-1.729144 0,0 0.374349,-0.608596 0.88808,-0.608596 0,0 0.234054,-0.739455 0.974277,-0.838452 -0.04725,0.012 -0.271648,0.124508 -0.271648,1.211968 0,0 0.418632,-1.588381 1.867579,-1.682127 0,0 -0.512155,0.840741 -0.09142,2.196691 0,0 -0.09613,-2.75686 1.773548,-3.87882 0,0 -0.232986,0.607959 -0.279484,1.496677 0,0 0.927682,-1.415947 1.752652,-2.353413 0.824219,0.937466 1.752652,2.353413 1.752652,2.353413 -0.04725,-0.888718 -0.279484,-1.496677 -0.279484,-1.496677 1.86968,1.12196 1.77616,3.87882 1.77616,3.87882 0.420734,-1.35595 -0.09403,-2.196691 -0.09403,-2.196691 1.448947,0.09375 1.870193,1.682127 1.870193,1.682127 0,-1.08746 -0.2244,-1.199968 -0.271648,-1.211968 0.740222,0.099 0.971663,0.838452 0.971663,0.838452 0.513731,0 0.888081,0.608596 0.888081,0.608596 1.3552,0.0465 2.664239,1.729144 2.664239,1.729144 -0.28049,-1.028212 -0.982112,-1.729144 -0.982112,-1.729144 1.868931,0.653977 1.870192,2.42916 1.870192,2.42916 0.326987,-0.79422 0.185452,-1.073532 0.185452,-1.073532 1.448947,1.541944 0.655612,3.458288 0.655612,3.458288 0.280489,0.981713 1.914595,2.335128 1.914595,2.335128 1.4489475,0.79422 1.9172078,4.254947 1.9172078,4.254947 0.8879682,2.523657 0.1410483,4.578835 0.1410483,4.578835 -0.3734867,2.616654 1.961612,4.487416 1.961612,4.487416 2.1966688,1.822433 1.7761598,4.484804 1.7761598,4.484804 0,1.168456 0.5145631,2.152287 0.5145631,2.152287 1.6821886,2.9908898 1.3e-6,5.3728837 0,5.3728837 -0.7949707,2.0564243 -0.3735148,4.1138997 -0.3735148,4.1138997 1.4961949,2.75764851 0.091419,4.5788353 0.091419,4.5788353 -0.4702329,1.736186 -1.609928,2.3535946 -2.1026603,2.5440876 -0.4777313,1.6424395 -1.1140114,2.808684 -1.7604875,3.6359035 -0.065998,2.2686662 -2.7269274,2.3560242 -2.7269274,2.3560242 -0.700475,4.299591 -4.53182,4.675479 -4.53182,4.675479 -1.542693,1.448947 -3.740383,1.21458 -3.740383,1.21458 -1.074711,1.121209 -2.241096,0.329112 -2.241097,0.329112 -1.08296,0.500231 -1.721438,-0.525014 -1.846683,-0.752256 -0.125245,0.227242 -0.762974,1.252487 -1.846684,0.752256 0,0 -0.455807,0.310087 -1.060472,0.269036 z m -2.220199,-1.891088 c 3.119135,-0.491232 3.855311,-4.134795 3.855311,-4.134795 -1.717437,3.575118 -3.855311,4.134795 -3.855311,4.134795 z m 11.589442,-0.310828 c 0.08738,0.0031 0.192153,-0.0087 0.282096,-0.0078 -1.433975,-0.06992 -3.899911,-0.616959 -5.709831,-3.377315 -0.238491,-1.014713 -0.308216,-1.8649683 -0.308216,-1.8649683 -0.06525,0.3809863 -0.101067,0.7327343 -0.112316,1.0604723 -0.172494,-0.748473 -0.209112,-1.5429484 0.125376,-2.1496762 2.490658,6.0980252 6.250516,2.2097522 6.250516,2.2097522 -2.841646,2.303915 -5.432969,-1.1957668 -6.266188,-2.5179681 -0.103497,-0.377986 -0.267612,-1.2045542 -0.02612,-2.0295239 0,0 0.168827,-0.5107076 0.514563,-0.2324679 0,0 -0.369561,-0.8035504 -0.566803,-1.9067597 0.195743,0.6344766 0.427103,1.1668702 0.684344,1.6116038 l 0.0052,0.00522 c 0.03375,0.057748 0.06662,0.114282 0.101868,0.1697801 1.902679,3.0433879 5.038547,1.6769037 5.038547,1.6769037 -3.204632,0.8984669 -5.199566,-2.3868101 -5.767295,-3.4870195 0.05475,-0.006 0.436101,0.5389517 0.532848,0.5876999 0,0 -0.348949,-0.6948467 -0.412696,-0.9873354 0.206243,0.285739 0.370904,0.4806074 0.370904,0.4806074 -0.464233,-0.8759677 -0.104481,-2.2149752 -0.104481,-2.2149752 0.103497,0.5159807 1.441824,1.8022795 1.441825,1.8022795 -0.772472,-0.9277155 -0.822781,-3.34858334 -0.822781,-3.34858334 0.30899,1.03121114 2.214976,1.33995564 2.214976,1.33995564 -1.184956,-0.670476 -1.906759,-2.31945569 -1.906759,-2.31945569 0.927715,0.30973819 1.444435,0.41269629 1.444435,0.41269495 l -0.723524,-1.23547566 c 1.700938,1.39119865 3.505304,1.38958448 3.505304,1.38958448 -0.308988,-0.30898929 -0.773152,-0.87502007 -0.773152,-0.87502007 1.082211,0.51523044 2.473563,0.41269629 2.473563,0.41269629 l -1.185847,-0.66867193 1.287715,-0.10447997 c -0.669724,-0.5152318 -0.773152,-1.0291276 -0.773152,-1.0291276 0.82497,0.2062412 2.525804,0.1541075 2.525804,0.1541075 -1.133958,-0.4117347 -2.113107,-1.5985445 -2.113107,-1.5985445 0,0 1.063716,1.0232058 2.225424,0.9377081 0.443984,0.1394956 2.749563,0.7307394 3.3825386,-1.7996676 0,0 -0.5127286,1.5351597 -3.0873826,1.7526519 0.0705,-0.016499 0.141074,-0.038302 0.211572,-0.0653 0,0 -1.288911,-0.1557725 -1.804893,-1.0317407 0,0 0.9799,0.6709681 2.113109,0.052241 0,0 -0.927858,-0.4629215 -1.185848,-0.7209125 0,0 0.516122,0.2575216 1.185848,-0.3604557 l -0.720913,-0.1567193 c 0,0 0.360645,-0.3584188 1.081369,-0.9246475 l -0.927261,0.049627 c 0,0 0.720737,-1.1855673 1.287716,-1.5463038 l -1.029127,0.2063482 c 0,0 0.823846,-1.2862988 1.441824,-1.8022795 0,0 -0.360562,-0.1549875 -0.566804,-0.052241 0,0 0.308041,-1.0814734 0.87502,-1.2877164 l -0.566804,-0.101868 c 0,0 -0.204403,-0.774323 0.310827,-1.598543 l -0.02351,0.0052 c -0.521231,0.428985 -1.207529,0.887594 -2.110496,1.366077 0,0 0.483616,-0.557194 1.162341,-1.449661 -0.826469,0.522731 -2.047179,0.932119 -3.769115,0.702628 0,0 2.299609,-0.03534 3.90755,-1.499288 0.09075,-0.0825 0.177566,-0.168953 0.263812,-0.261199 0.0023,0.0022 0.0056,0.0037 0.0078,0.0052 0.0645,-0.072 0.127678,-0.148885 0.190676,-0.224632 0.0315,-0.036 0.057,-0.06892 0.07575,-0.09142 -0.0022,-7.51e-4 -0.003,-0.0019 -0.0052,-0.0026 -0.139494,-0.0555 -0.313312,-0.08907 -0.491056,-0.03657 0.015,-0.0615 0.03494,-0.136523 0.06269,-0.222021 0.0915,-0.283489 0.255409,-0.660192 0.522399,-0.867183 0,0 -0.670511,-0.05301 -0.979499,0.255975 0,0 0.156439,-0.721016 0.517175,-0.927259 0,0 -1.290925,0.515723 -1.548916,0.05224 0,0 0.569031,1.76e-4 0.723525,-0.566803 0,0 -1.201835,0.418767 -1.669068,-0.133212 0,0 1.730202,-0.334268 1.51496,-1.258985 0,0 -1.083208,0.67071 -1.392196,0.10448 0,0 0.927259,-0.463495 0.927259,-1.287715 l -1.081367,0.206348 c 0,0 0.874142,-0.619361 0.976887,-1.238089 l -1.183235,-0.255975 c 0,0 0.771887,-0.258412 1.029128,-0.825391 0,0 0.45458,-0.506026 -0.62688,-0.04179 0,0 0.09975,-0.293688 0.302991,-0.744421 -0.272239,0.667475 -2.39788,2.454299 -3.675082,2.578043 0,0 4.083432,-2.54452 3.904938,-4.354203 -0.003,-0.0225 -0.0048,-0.0428 -0.0078,-0.0653 0,0 -0.97997,0.566945 -1.339956,1.752652 0,0 0.10243,-2.112429 -0.619044,-1.339956 0,0 0.620833,-1.804562 -1.337344,0.101867 0,0 0.307605,-1.95723 -1.238088,-0.875019 0,0 0.05135,-1.650257 -1.133607,-0.619044 l -0.566804,0.514564 0.05224,-1.029129 c 0,0 -0.206642,-0.566193 -1.133607,0.9795 0,0 0.206312,-2.679884 -0.773152,-0.10448 0,0 -0.772977,-3.039532 -1.339956,0.206348 h -0.02612 c -0.207743,-1.191705 -0.442983,-1.535312 -0.658224,-1.494063 -0.161244,-0.156745 -2.789332,-2.818324 -0.342172,-7.984884 0,0 1.541661,-3.014187 0.20896,-4.696375 0,0 0.840295,2.243471 -1.052636,4.416891 0,0 -1.833223,2.173255 -0.54852,6.485596 -2.990889,-1.424197 -2.149676,-6.391563 -2.149676,-6.391563 -1.316202,5.96228 1.890941,6.931524 2.679911,7.078518 0.326989,0.368987 0.723038,0.73408 1.201521,1.091817 -0.370487,0.07425 -0.679121,1.287715 -0.679121,1.287715 -0.978713,-2.575404 -0.773151,0.10448 -0.773151,0.10448 -0.927716,-1.545693 -1.133608,-0.9795 -1.133608,-0.9795 l 0.05224,1.029129 -0.566804,-0.514564 c -0.364488,-0.317238 -0.610383,-0.38055 -0.778377,-0.316052 -3.24213,-2.46666 -0.739195,-7.893464 -0.739195,-7.893464 -3.572119,5.093813 0.285876,7.626835 0.731359,7.896076 -0.370487,0.150744 -0.347396,0.932484 -0.347396,0.932484 -1.545693,-1.082211 -1.235476,0.87502 -1.235476,0.875019 -1.958177,-1.906429 -1.339955,-0.101867 -1.339955,-0.101867 -0.721474,-0.772473 -0.619044,1.339956 -0.619044,1.339956 -0.359987,-1.185707 -1.339956,-1.752652 -1.339956,-1.752652 -0.003,0.02025 -0.0022,0.03983 -0.0052,0.06008 1.08821,2.651902 4.19226,4.490027 4.19226,4.490027 -2.166671,-1.178206 -3.343651,-2.10864 -3.967628,-2.713867 0.203992,0.452982 0.451876,0.689567 0.451876,0.689567 -1.08221,-0.464233 -0.773152,0.101869 -0.773152,0.101869 0.25724,0.566979 1.029128,0.825391 1.029128,0.825391 l -1.185848,0.255975 c 0.103496,0.618728 0.9795,1.238089 0.9795,1.238089 l -1.081368,-0.206348 c 0,0.82422 0.92726,1.287715 0.92726,1.287715 -0.308989,0.56623 -1.389584,-0.10448 -1.389584,-0.10448 0.308989,1.030462 1.441824,1.133609 1.441824,1.133609 -0.154495,0.412484 -1.598544,0.258588 -1.598544,0.258588 0.154494,0.566979 0.720912,0.566803 0.720912,0.566803 -0.257241,0.463484 -1.543692,-0.05224 -1.543692,-0.05224 0.360737,0.206243 0.514564,0.927259 0.514564,0.927259 -0.308989,-0.308989 -0.9795,-0.255975 -0.9795,-0.255975 0.463483,0.360736 0.619044,1.235475 0.619044,1.235475 -0.114746,-0.096 -0.236788,-0.112393 -0.344784,-0.09664 1.571192,2.016676 4.42734,2.060868 4.42734,2.060868 -2.141172,0.28499 -3.509605,-0.416065 -4.304576,-1.09704 0.829469,1.120458 1.457496,1.844073 1.457496,1.844073 -0.846719,-0.449234 -1.502759,-0.881981 -2.01124,-1.287717 0.450733,0.791971 0.2612,1.514961 0.2612,1.514959 l -0.566804,0.101868 c 0.566229,0.206243 0.87502,1.2877164 0.87502,1.2877164 -0.206242,-0.1027468 -0.566804,0.052239 -0.566804,0.052241 0.617977,0.5159807 1.441824,1.8022795 1.441824,1.8022795 l -1.029128,-0.2063482 c 0.566229,0.3607365 1.287716,1.5463038 1.287716,1.5463038 l -0.92726,-0.049627 c 0.721474,0.5662287 1.081368,0.9246475 1.081368,0.9246475 l -0.720912,0.1567193 c 0.670475,0.6179773 1.185848,0.3604557 1.185848,0.3604557 -0.257991,0.257991 -1.185848,0.7209125 -1.185848,0.7209125 1.133958,0.6187275 2.113108,-0.052241 2.113108,-0.052241 -0.515231,0.8759682 -1.804892,1.0317407 -1.804892,1.0317407 0.0105,0.00375 0.02346,0.00595 0.03396,0.010447 -2.18467,-0.346487 -2.63812,-1.6977994 -2.63812,-1.6977994 0.632227,2.5296567 2.940418,1.9391632 3.385152,1.7996676 1.050711,-0.069746 1.951164,-0.9377081 1.951164,-0.9377081 0,0 -0.97915,1.1868098 -2.113108,1.5985445 0,0 1.700834,0.052134 2.525804,-0.1541075 0,0 -0.103427,0.5138958 -0.773152,1.0291276 l 1.287716,0.10447997 -1.185848,0.66867193 c 0,0 1.391354,0.10253415 2.473563,-0.41269629 0,0 -0.464162,0.56603078 -0.773152,0.87502007 0,0 1.802504,0.001614 3.502692,-1.38958448 l -0.7183,1.23547566 c 0,0 0.514108,-0.10295676 1.441824,-0.41269495 0,0 -0.721804,1.64897969 -1.90676,2.31945569 0,0 1.905988,-0.3087445 2.214976,-1.33995564 0,0 -0.05217,2.42086784 -0.825391,3.34858334 0,0 1.341688,-1.2862988 1.444435,-1.8022795 0,0 0.361615,1.3390075 -0.101868,2.2149752 0,0 0.400596,-0.4756218 0.736584,-1.034352 -0.911967,4.7990735 -5.82476,4.3698756 -5.82476,4.3698756 0.06375,0.031499 0.128429,0.060309 0.190676,0.088808 -0.036,-0.00675 -0.07109,-0.010784 -0.107092,-0.018284 0,0 0.118034,0.048956 0.321277,0.1097041 3.651614,1.4841953 5.217873,-2.3918003 5.55311,-3.3877636 0.09675,0.7372228 -0.590311,1.7239197 -0.590311,1.7239197 0.326238,-0.3562369 0.498117,-0.4616772 0.579864,-0.441428 -0.313488,1.1489578 -1.487221,4.2529323 -5.080339,4.4351763 0,0 4.403036,0.45106 5.096011,-3.4060483 0.106496,0.6509761 -0.0018,1.2617803 -0.08881,1.6037678 -0.78447,1.2652035 -3.413472,4.9302935 -6.305366,2.5858805 0,0 3.767692,3.897014 6.258351,-2.2332606 0.363737,0.6344766 0.311032,1.4846076 0.11754,2.2698286 -0.0075,-0.353987 -0.04368,-0.737882 -0.114929,-1.1571167 0,0 -0.325688,4.0176537 -2.008627,4.9993677 0,0 1.474853,-0.48505 1.966835,-2.38998 0.256491,-0.451483 0.376128,-0.940319 0.376128,-0.940319 l 0.266425,1.063083 v 0.01045 l 0.0026,-0.0052 v -0.0078 l 0.269037,-1.060471 c 0,0 0.10337,0.430001 0.329112,0.856735 0.469482,1.976178 1.987731,2.473564 1.987731,2.473564 -0.552729,-0.322488 -0.95677,-0.9748 -1.253759,-1.703024 0.0045,0.0015 0.0059,0.0063 0.01045,0.0078 0,0 -0.01182,-0.02553 -0.03657,-0.07052 -0.104996,-0.26549 -0.195513,-0.540842 -0.27426,-0.812332 0.641132,1.204175 2.137905,2.717822 5.281463,2.828796 z m -13.46747,-0.974276 c 0.731559,0.01932 1.617732,-0.133167 2.695583,-0.540684 0,0 -3.996097,1.400531 -6.099019,-2.875811 0,0 0.233348,3.332762 3.403436,3.416495 z m 14.363386,0 c 3.3784,-0.08373 4.163528,-3.416495 4.163528,-3.416495 -2.103672,4.276342 -6.940084,2.875811 -6.940084,2.875811 1.077851,0.407517 1.996926,0.560007 2.776556,0.540684 z m -2.729539,-3.837027 c 0.31384,0.0076 0.514563,-0.03134 0.514563,-0.03134 -2.97964,-0.3854861 -3.962403,-3.4687359 -3.962403,-3.4687359 0.552354,3.0497627 2.506319,3.4771589 3.44784,3.5000799 z m -9.758431,-0.8332282 c 1.916181,0.076014 3.087383,-1.3817479 3.087383,-1.3817479 -2.944392,1.8696811 -6.122527,0.047016 -6.122527,0.047016 1.13902,0.9494181 2.164152,1.3001803 3.035144,1.3347319 z m 10.531583,0 c 0.871001,-0.034552 1.895888,-0.3853138 3.035143,-1.3347319 0,0 -3.178886,1.8226651 -6.122527,-0.047016 0,0 1.17118,1.4577615 3.087384,1.3817479 z M -32.975523,8.0710439 c -0.456733,-2.0706738 -4.476968,-2.2097517 -4.476968,-2.2097517 3.932106,1.1857064 4.41772,2.037258 4.476968,2.2097517 z m 19.845974,0 c 0.05925,-0.1724937 0.544862,-1.0240453 4.4769675,-2.2097517 0,0 -4.0202345,0.1390779 -4.4769675,2.2097517 z M -29.240364,7.209084 c 2.670967,0.06755 4.2445,-2.4918477 4.2445,-2.4918477 -3.224881,3.1311348 -6.263575,1.9616118 -6.263575,1.9616118 0.727426,0.3592836 1.402699,0.5146475 2.019075,0.5302359 z m 12.378267,0 c 0.616284,-0.015588 1.289178,-0.1709523 2.016463,-0.5302359 0,0 -3.036082,1.169523 -6.260962,-1.9616118 0,0 1.573936,2.5593978 4.244499,2.4918477 z m 0.9142,-0.7757639 c 0.584528,0.033348 1.212232,-0.082239 1.870192,-0.4126959 0,0 -3.12106,1.0322452 -6.1382,-2.6381199 0,0 1.735051,2.9063088 4.268008,3.0508158 z m 3.766504,-0.407472 C -11.117932,5.3883716 -7.2760575,4.2758084 -7.2760575,4.2758084 -2.5849802,2.640118 -5.7976667,-3.241527 -5.7976667,-3.241527 -3.478001,2.848999 -7.5372581,3.5026566 -7.5372581,3.5026566 -10.948882,4.3898738 -12.181393,6.0258481 -12.181393,6.0258481 Z M -30.104935,5.7620362 c 2.273822,-0.039338 4.220991,-2.1679601 4.220991,-2.1679601 -3.692114,2.9916402 -6.543059,1.3556281 -6.543059,1.3556281 0.770971,0.6076652 1.564127,0.8254448 2.322068,0.812332 z m -4.226216,-0.1410481 c 0.0037,-0.066747 0.0034,-0.1332643 0.0026,-0.1985118 0.0195,0.00975 0.04208,0.019732 0.06008,0.028732 0,0 -0.02033,-0.023689 -0.06008,-0.062688 -0.04275,-2.0084258 -2.120944,-2.9097675 -2.120944,-2.9097675 -3.404874,-1.2854522 -2.962007,-6.3132031 -2.962007,-6.3132031 -1.070961,4.9730669 2.228035,6.6710469 2.228035,6.6710469 1.464696,0.5317306 2.293469,1.7289952 2.645956,2.3664717 -0.509981,-0.4252343 -1.785908,-1.2928935 -4.129571,-1.7578759 0,0 -3.76646,-0.4014506 -1.953776,-5.8012519 0,0 -2.642937,5.2567537 1.752652,6.488208 0,0 3.222547,0.7247446 4.419503,1.2354758 0.08025,0.1574942 0.11754,0.2533641 0.11754,0.2533639 z m 3.823968,-0.8619598 c 2.620558,-0.056163 4.996755,-3.0795472 4.996755,-3.0795472 -3.692113,3.7393619 -6.825155,2.5702072 -6.825155,2.5702072 0.604665,0.3767206 1.223655,0.5223006 1.8284,0.50934 z m 14.909293,0 c 0.604695,0.012961 1.223876,-0.1326194 1.828401,-0.50934 0,0 -3.130429,1.1691547 -6.822544,-2.5702072 0,0 2.373801,3.0233844 4.994143,3.0795472 z m 0.480608,-1.6612311 c 1.095407,0.042383 2.223606,-0.2579041 3.02992,-1.3268966 0,0 -1.916247,1.9637664 -6.590075,0.2350797 0,0 1.734479,1.021177 3.560155,1.0918169 z m 5.2031038,-1.3713004 c 0,0 7.2122044,-0.4174907 2.941112,-6.4255199 -0.023248,-0.771721 -0.2063481,-1.2877151 -0.2063481,-1.2877151 1.541944,-5.2573068 -2.6642391,-10.3043388 -2.6642391,-10.3043388 2.5236561,3.926105 2.2437073,8.1311551 2.2437073,8.1311551 0,3.3651262 -2.0347473,5.1169076 -2.0347473,5.1169076 0.9119655,-0.4199848 2.0347473,-2.2410968 2.0347473,-2.2410968 -0.069748,4.2763429 -4.0668829,6.3079795 -4.0668829,6.3079795 4.1180978,-1.54419218 4.7372612,-4.1502501 4.6937628,-5.7124429 0.4177354,0.6869748 2.4774388,4.56563977 -2.941112,6.4150713 z M -30.671739,1.6533601 c 1.948829,-1.096e-4 3.664635,-1.00300784 3.664635,-1.00300784 -4.626579,1.68293894 -7.104639,-0.51456311 -7.104639,-0.51456311 1.0164,1.15673825 2.270706,1.51763785 3.440004,1.51757095 z m 15.238406,0 c 1.169275,6.69e-5 2.423323,-0.3608327 3.440004,-1.51757095 0,0 -2.47806,2.19750205 -7.10464,0.51456311 0,0 1.715843,1.00289824 3.664636,1.00300784 z m -19.00491,-0.6294917 c 0,0 -3.996386,-2.0316366 -4.066884,-6.3079795 0,0 1.123532,1.821112 2.034748,2.2410968 0,0 -2.034748,-1.7517814 -2.034748,-5.1169076 0,0 -0.279949,-4.2050501 2.243708,-8.1311551 0,0 -4.204321,5.047032 -2.661627,10.3043388 0,0 -1.68447,4.6969415 4.484803,7.0106066 z m 3.178804,-0.74703227 c 0.919271,-0.0164119 1.588096,-0.18806264 1.588096,-0.18806264 -4.766825,0.04649811 -6.30798,-2.52319209 -6.30798,-2.52319209 0.964183,2.33663263 3.187765,2.7386101 4.719884,2.71125473 z m 16.416419,0 c 1.532272,0.0273554 3.756168,-0.3746221 4.719882,-2.71125473 0,0 -1.543017,2.5696902 -6.310591,2.52319209 0,0 0.671345,0.17165076 1.590709,0.18806264 z M -32.557603,-1.3034229 c 0.401096,0.028673 0.860274,-0.096089 1.298164,-0.5694156 0,0 -1.261221,0.560747 -2.476176,0.047016 0,0 0.509518,0.4746113 1.178012,0.5223996 z m 19.010134,0 c 0.668676,-0.047789 1.180624,-0.5223999 1.180624,-0.5223999 -1.214956,0.5137313 -2.478789,-0.047016 -2.478789,-0.047016 0.438172,0.4733262 0.896958,0.5980883 1.298165,0.5694159 z m 1.329507,-2.7582716 c 2.153171,0.064497 1.486228,-2.3925924 1.486228,-2.3925924 -0.293988,2.0984235 -1.140491,2.3715934 -1.486228,2.3925924 z m -6.125139,-0.2847085 c -0.756226,-0.036033 -1.899325,-0.3608007 -2.614611,-1.8466833 l 0.282095,1.1936837 c 0,0 -1.107151,-0.7669079 -1.099651,-2.1888561 -0.143995,-0.041248 -0.155271,-0.2050028 -0.07052,-0.250752 0.296989,-0.1312442 1.89206,0.1060728 3.21276,-0.9011397 0,0 1.863705,-1.5384964 4.777348,-1.7604876 0,0 -2.16107,0.4439729 -3.638515,1.5201843 0,0 1.672067,0.2072736 1.669066,2.2959466 0,0 -1.951826,1.1651728 -3.638515,-0.094031 0,0 -0.881426,0.2806831 -0.185451,1.1753996 0,0 0.510234,0.7606611 2.073927,0.7966597 0,0 -0.314191,0.081697 -0.767928,0.060076 z m -9.384915,-0.00261 c -0.228109,-0.012175 -0.370904,-0.044404 -0.370904,-0.044404 1.562943,-0.077997 2.053032,-0.8515122 2.053032,-0.8515122 0.673475,-0.9119655 -0.216796,-1.1701759 -0.216796,-1.1701759 -1.652939,1.3027027 -3.633291,0.188064 -3.633291,0.188064 -0.05775,-2.0879227 1.608991,-2.3377399 1.608991,-2.3377399 -1.505194,-1.0372118 -3.680307,-1.4261515 -3.680307,-1.4261515 2.918892,0.1462452 4.821752,1.6351115 4.821752,1.6351115 1.334201,0.9637154 3.028137,0.7305602 3.238879,0.8175557 0.08625,0.043499 0.07794,0.2083662 -0.0653,0.2533652 0.045,1.4211966 -1.0448,2.2175875 -1.0448,2.2175875 l 0.253364,-1.2015205 c -0.811095,1.8049969 -2.280294,1.9563455 -2.96462,1.9198201 z m 0.04702,-1.878028 c 0.431703,-0.046685 1.004733,-0.2945179 1.564588,-1.1074879 0,0 -0.321616,-0.094654 -0.7836,-0.3473951 0.012,0.033748 0.02198,0.068481 0.02873,0.10448 0.072,0.3907358 -0.200973,0.7705401 -0.611207,0.8462872 -0.410986,0.074997 -0.805635,-0.1812916 -0.877632,-0.5720274 -0.05325,-0.2887392 0.08576,-0.569754 0.326499,-0.7287481 -0.392985,0.00225 -0.804083,0.1631399 -0.963828,0.7548678 0,0 -0.241433,0.6740801 0.595537,0.9403198 0,0 0.289209,0.1563904 0.720911,0.1097037 z m 9.638279,0 c 0.432735,0.035343 0.720912,-0.1279878 0.720912,-0.1279878 0.830219,-0.287989 0.569416,-0.9586041 0.569416,-0.9586041 -0.175493,-0.5872277 -0.589127,-0.734385 -0.982112,-0.7261362 0.245241,0.1522445 0.390532,0.428061 0.344785,0.7183007 -0.06225,0.3922349 -0.449476,0.660034 -0.861961,0.5955353 -0.411735,-0.065248 -0.696213,-0.43838 -0.634716,-0.8306149 0.006,-0.036749 0.01748,-0.070732 0.02873,-0.10448 -0.455233,0.2647392 -0.775764,0.3682911 -0.775764,0.3682911 0.581228,0.7975959 1.157974,1.0303539 1.590708,1.0656959 z m -16.625378,-1.622051 c -0.174743,-0.061498 -1.485095,-0.5765717 -1.943328,-2.309008 0,0 -0.735206,-2.347377 -0.10448,-4.030316 0,0 -1.921046,5.0666207 2.047808,6.339324 z m 23.252022,-0.00784 c 3.5241192,-1.1482073 2.3660021,-5.305187 2.0817631,-6.172154 0.5309803,1.667189 -0.1593325,3.870983 -0.1593312,3.870983 -0.4424843,1.6761874 -1.6846909,2.2126749 -1.9224319,2.301171 z M -40.18725,-9.2804717 c -1.401699,-4.5568313 1.12316,-8.8337833 1.12316,-8.8337833 -3.575869,3.154385 -1.12316,8.8337833 -1.12316,8.8337833 z m 34.2694364,0 c 0,0 2.4519584,-5.6793983 -1.1231603,-8.8337833 0,0 2.5248584,4.276952 1.1231603,8.8337833 z M -25.920512,-10.542066 c -0.222553,-0.02516 -0.468711,-0.08254 -0.744419,-0.180228 0,0 1.842838,0.2496 2.625058,-1.034351 0,0 -0.322769,1.390714 -1.880639,1.214579 z m 5.456467,0 c -1.557869,0.176494 -1.878027,-1.214579 -1.878027,-1.214579 0.782221,1.284702 2.625059,1.034351 2.625059,1.034351 -0.275708,0.09778 -0.524478,0.155014 -0.747032,0.180228 z m -6.87217,-0.963827 c 0,0 -1.590471,-2.14935 1.397418,-3.126565 0,0 -2.17889,1.004142 -1.397418,3.126565 z m 8.287874,0 c 0.781472,-2.122423 -1.394807,-3.126565 -1.394807,-3.126565 2.98714,0.977215 1.394807,3.126565 1.394807,3.126565 z m -7.044563,-0.156721 c -0.111456,0.01373 -0.229611,0.0027 -0.355232,-0.03918 0,0 -0.781489,-0.584843 0.838452,-1.925044 0,0 0.809632,-0.72549 2.345575,-0.780987 h 0.146273 c 1.535944,0.0555 2.342964,0.780987 2.342964,0.780987 1.619939,1.340201 0.838452,1.925044 0.838452,1.925044 -1.004963,0.335237 -1.561976,-1.339956 -1.561976,-1.339956 -0.419235,-0.977213 -1.676904,-0.726136 -1.676904,-0.726136 h -0.08881 c 0,0 -1.200955,-0.251077 -1.619439,0.726136 0,0 -0.429164,1.28303 -1.209356,1.379136 z m 19.6840297,-0.35262 c 0,0 0.06488,-4.518397 -3.0377551,-7.021055 0.2159917,-1.171457 0.1437043,-2.493439 -0.5485196,-3.83964 -1.039463,-4.108349 -0.322077,-5.115719 -0.159333,-5.281463 -1.215705,1.028962 -0.778528,3.200538 -0.444039,4.320247 -0.006,-0.0082 -0.0097,-0.01862 -0.01567,-0.02612 0,0 -1.333558,-2.381078 -0.282097,-4.343756 0,0 1.1225931,-1.333436 -1.191072,-3.64635 0,0 -0.910008,-0.562526 -0.700015,-1.964224 0,0 -0.841699,1.192071 0.350008,2.734764 0,0 1.402846,1.542281 0.982112,2.664239 0,0 -1.542173,3.015044 0.350007,4.978472 0,0 3.0840633,3.504399 -0.491055,8.62221 0,0 1.373556,-1.442518 1.9772839,-3.502692 0.6449756,0.614229 3.0886518,3.141985 3.2101468,6.305368 z M -34.508767,-14.81791 c -3.575118,-5.117811 -0.491056,-8.62221 -0.491056,-8.62221 1.89293,-1.963428 0.35262,-4.978472 0.35262,-4.978472 -0.420734,-1.121958 0.9795,-2.664239 0.9795,-2.664239 1.191706,-1.542693 0.350008,-2.734764 0.350008,-2.734764 0.210742,1.401698 -0.700016,1.964224 -0.700016,1.964224 -2.313665,2.312914 -1.191072,3.64635 -1.191072,3.64635 1.051461,1.962678 -0.279484,4.343756 -0.279484,4.343756 -3.365126,4.486335 0.9795,9.045355 0.9795,9.045355 z m 1.01868,-2.768719 c 0,0 -2.174392,-0.947488 -1.473168,-3.89188 0,0 -1.751713,3.155406 1.473168,3.89188 z m 20.877713,0 c 3.2248819,-0.736474 1.470557,-3.89188 1.470557,-3.89188 0.700474,2.944392 -1.470557,3.89188 -1.470557,3.89188 z m -12.495806,-1.481004 c -1.213643,0.03506 -3.05608,-0.41649 -5.704607,-2.225424 0,0 5.330572,1.590697 7.637487,0.530237 2.306914,1.06046 7.637487,-0.530237 7.637487,-0.530237 -5.296305,3.617867 -7.368247,1.808122 -7.637487,1.530633 -0.134621,0.138744 -0.719237,0.65973 -1.93288,0.694791 z m -7.786371,-1.428764 c 0,0 -1.227811,-1.366616 -0.282096,-3.609783 0,0 -2.030819,1.857097 0.282096,3.609783 z m 19.686642,0 c 2.313665,-1.752686 0.279483,-3.609783 0.279483,-3.609783 0.946465,2.243167 -0.279483,3.609783 -0.279483,3.609783 z m -16.230967,-1.217192 c 0,0 0.466681,-1.074823 1.705637,-0.888079 0,0 3.274554,0.21051 4.44301,0.04702 h 0.232468 c 1.169208,0.163494 4.443012,-0.04702 4.443012,-0.04702 1.239705,-0.186744 1.705637,0.888079 1.705637,0.888079 -0.888718,-0.841469 -1.635113,-0.491055 -1.635113,-0.491055 -2.033175,0.486731 -4.379835,0.491805 -4.631075,0.491055 -0.250491,7.5e-4 -2.595288,-0.0043 -4.628464,-0.491055 0,0 -0.747145,-0.350414 -1.635112,0.491055 z m -7.663607,-0.747032 c -0.79947,-2.950391 0.396639,-4.230485 0.702628,-4.500475 -2.279166,1.821683 -0.702628,4.500475 -0.702628,4.500475 z m 28.0998932,0 c 0,0 1.5772887,-2.678792 -0.7026284,-4.500475 0.3067398,0.26999 1.501349,1.550084 0.7026284,4.500475 z M -30.836295,-24.08006 c -0.147745,-0.152995 -2.294435,-2.471301 -1.008232,-6.195664 0,0 -1.191359,1.156594 -1.4366,3.084772 l 0.66606,-0.9142 c 0,0 -0.525144,1.715927 1.778772,4.025092 z m 15.567518,0 c 2.303165,-2.309165 1.778771,-4.025092 1.778771,-4.025092 l 0.66606,0.9142 c -0.24524,-1.928178 -1.4366,-3.084772 -1.4366,-3.084772 1.286203,3.722863 -0.858236,6.040419 -1.008231,6.195664 z m -3.126563,-0.203737 c 0,0 5.607861,-3.713738 0.770539,-7.919583 0,0 2.524839,5.465674 -0.770539,7.919583 z m -3.857924,-0.629491 c 4.977567,-3.715364 1.193684,-8.272204 1.193684,-8.272204 -1.89218,-2.17342 -1.052636,-4.416891 -1.052636,-4.416891 -1.331952,1.682188 0.211572,4.696375 0.211572,4.696375 3.78586,4.766826 -0.35262,7.99272 -0.35262,7.99272 z m -0.817556,-0.702629 c -0.654726,-1.682937 0.467548,-3.364255 0.467548,-3.364255 1.028212,-2.102923 -0.700016,-4.064271 -0.700016,-4.064271 0.701225,2.617404 -0.04702,3.784787 -0.04702,3.784787 -1.121958,1.776684 0.279485,3.643739 0.279485,3.643739 z m 3.787399,-0.279483 c 3.055388,-1.925179 1.162207,-4.374924 0.733972,-4.866156 -1.715936,-2.782397 -1.31906,-6.49082 -1.31906,-6.49082 -1.836682,2.265668 0.657584,5.707591 1.31906,6.543061 1.567442,2.735149 -0.733972,4.813915 -0.733972,4.813915 z m -13.681654,-4.97586 c 1.962678,-1.89293 0.420532,-3.437392 0.420532,-3.437392 -0.738723,-0.79497 -0.695748,-1.128643 -0.653,-1.227639 -0.449984,0.692224 0.09142,1.439212 0.09142,1.439212 1.191706,2.032425 0.141048,3.225819 0.141048,3.225819 z m 19.827689,0 c 0,0 -1.05327,-1.193394 0.138437,-3.225819 0,0 0.542152,-0.746988 0.09142,-1.439212 0.0435,0.099 0.08497,0.432669 -0.652999,1.227639 0,0 -1.539534,1.544462 0.423142,3.437392 z m -16.954489,-0.632103 c 2.523656,-3.014139 1.473167,-3.925836 1.473167,-3.925836 -1.705437,-1.574942 -1.202243,-2.597209 -1.130996,-2.721703 -1.034961,1.60719 0.498892,3.07171 0.498892,3.07171 0.56098,1.822433 -0.841063,3.575829 -0.841063,3.575829 z m 14.078679,0 c 0,0 -1.402045,-1.753396 -0.841065,-3.575829 0,0 1.533854,-1.46452 0.498892,-3.07171 0.072,0.124494 0.575191,1.146761 -1.130996,2.721703 0,0 -1.050489,0.911697 1.473169,3.925836 z m -14.708171,-1.682129 c 0,0 0.665688,-1.016438 -0.245528,-1.927655 0,0 0.385772,1.226431 0.245528,1.927655 z m 2.732151,-0.773152 c 0,0 1.649381,-1.156049 0.948157,-3.118727 0,0 -0.770972,-1.121467 0,-2.452667 0,0 -1.158352,0.629744 -0.527625,2.627671 0,0 0.665428,1.506777 -0.420532,2.943723 z m 9.873359,0 c -1.086709,-1.436946 -0.420531,-2.943723 -0.420531,-2.943723 0.630726,-1.997927 -0.525012,-2.627672 -0.525012,-2.627671 0.770971,1.3312 0,2.452667 0,2.452667 -0.701224,1.962678 0.945543,3.118727 0.945543,3.118727 z m -6.543059,-3.18925 c 0.280489,-3.224132 1.193684,-4.205321 1.193684,-4.205321 -1.89293,1.507445 -1.193684,4.205321 -1.193684,4.205321 z m 3.21276,0 c 0,0 0.701858,-2.697876 -1.191073,-4.205321 0,0 0.910583,0.981189 1.191073,4.205321 z"
               id="path22"
               inkscape:connector-curvature="0" /></g></g></g></g></g></svg>