<?xml version="1.0" encoding="UTF-8" standalone="no"?>
<svg
   xmlns:dc="http://purl.org/dc/elements/1.1/"
   xmlns:cc="http://creativecommons.org/ns#"
   xmlns:rdf="http://www.w3.org/1999/02/22-rdf-syntax-ns#"
   xmlns:svg="http://www.w3.org/2000/svg"
   xmlns="http://www.w3.org/2000/svg"
   xmlns:sodipodi="http://sodipodi.sourceforge.net/DTD/sodipodi-0.dtd"
   xmlns:inkscape="http://www.inkscape.org/namespaces/inkscape"
   version="1.1"
   id="svg4390"
   viewBox="0 0 36.318905 22.237898"
   height="6.2760291mm"
   width="10.250002mm"
   sodipodi:docname="bike.svg"
   inkscape:version="0.92.3 (2405546, 2018-03-11)">
  <sodipodi:namedview
     pagecolor="#ffffff"
     bordercolor="#666666"
     borderopacity="1"
     objecttolerance="10"
     gridtolerance="10"
     guidetolerance="10"
     inkscape:pageopacity="0"
     inkscape:pageshadow="2"
     inkscape:window-width="1920"
     inkscape:window-height="1144"
     id="namedview946"
     showgrid="false"
     fit-margin-top="0"
     fit-margin-left="0"
     fit-margin-right="0"
     fit-margin-bottom="0"
     inkscape:zoom="31.132641"
     inkscape:cx="19.370079"
     inkscape:cy="11.86025"
     inkscape:window-x="0"
     inkscape:window-y="26"
     inkscape:window-maximized="1"
     inkscape:current-layer="svg4390" />
  <defs
     id="defs4392" />
  <metadata
     id="metadata4395">
    <rdf:RDF>
      <cc:Work
         rdf:about="">
        <dc:format>image/svg+xml</dc:format>
        <dc:type
           rdf:resource="http://purl.org/dc/dcmitype/StillImage" />
        <dc:title></dc:title>
      </cc:Work>
    </rdf:RDF>
  </metadata>
  <g
     transform="translate(-340.07211,-542.08811)"
     id="layer1">
    <path
       id="path4482"
       d="m 346.23371,564.28817 c -3.09477,-0.39684 -5.5412,-2.74275 -6.06779,-5.81847 -0.33082,-1.93227 0.22557,-4.03065 1.4759,-5.56616 0.25804,-0.31688 0.88777,-0.92836 1.20995,-1.17487 0.60914,-0.46607 1.5001,-0.91579 2.23561,-1.12847 0.84713,-0.24495 1.85569,-0.34086 2.65844,-0.25278 0.24524,0.0269 0.48701,0.0508 0.53728,0.0531 0.10579,0.005 0.0149,0.27207 0.90172,-2.65169 0.90116,-2.97109 1.10305,-3.5552 1.48014,-4.28238 0.15515,-0.2992 0.26947,-0.45787 0.4928,-0.68398 0.5813,-0.58853 1.04184,-0.69251 3.07269,-0.69369 l 1.15347,-6.7e-4 v 0.69397 0.69397 l -1.26979,0.0183 c -1.30227,0.0188 -1.47387,0.0375 -1.77673,0.19423 -0.18445,0.0954 -0.37747,0.33423 -0.49332,0.61031 -0.11573,0.27581 -0.53123,1.71058 -0.53123,1.83439 0,0.0769 0.019,0.0773 3.05331,0.0517 1.67931,-0.0141 4.44037,-0.0259 6.13568,-0.0261 l 3.08238,-3.5e-4 0.23564,-0.6685 c 0.20251,-0.57451 0.22705,-0.67245 0.17448,-0.69658 -0.0336,-0.0155 -0.43629,-0.10617 -0.89477,-0.20164 -1.14684,-0.23879 -1.33239,-0.2825 -1.67342,-0.39428 -0.47653,-0.15618 -0.59754,-0.33636 -0.4207,-0.62641 l 0.0768,-0.12601 h 3.07706 3.07706 l 0.0253,0.41315 c 0.0139,0.22722 0.0253,0.54092 0.0253,0.69711 v 0.284 l -0.8181,0.0105 -0.8181,0.0105 -0.24066,0.66249 -0.24066,0.66248 0.95914,2.1291 c 0.52752,1.17101 0.97343,2.15221 0.99091,2.18044 0.0258,0.0417 0.0862,0.0361 0.32256,-0.0298 0.7981,-0.22276 1.81362,-0.31765 2.5692,-0.24006 1.70484,0.17505 3.10177,0.8284 4.27715,2.00044 0.27891,0.27812 0.60331,0.63654 0.72087,0.79647 1.26226,1.71719 1.68747,3.89218 1.1605,5.93597 -0.55578,2.15555 -2.08775,3.90068 -4.17583,4.75687 -1.34169,0.55014 -2.91381,0.6515 -4.36717,0.28154 -2.07075,-0.5271 -3.82251,-2.02321 -4.67321,-3.9912 -0.11423,-0.26424 -0.26174,-0.67662 -0.32779,-0.91641 l -0.1201,-0.43596 -0.17373,-0.0238 c -0.0955,-0.0131 -0.78631,-0.0241 -1.53503,-0.0244 -1.51098,-6.3e-4 -1.67325,-0.0195 -2.09345,-0.24272 -0.36799,-0.19553 -0.90289,-0.74246 -2.16992,-2.21873 -1.91171,-2.22742 -3.15613,-3.62959 -4.64827,-5.23747 -0.39414,-0.42472 -0.88918,-0.95805 -1.10009,-1.18519 -0.21091,-0.22714 -0.39993,-0.40921 -0.42004,-0.40461 -0.0201,0.005 -0.14762,0.35586 -0.28334,0.78057 -0.18357,0.57446 -0.23378,0.77638 -0.19606,0.78852 0.1638,0.0527 0.8253,0.42721 1.18356,0.67004 0.47985,0.32521 1.30387,1.11784 1.64601,1.5833 1.26226,1.71719 1.68748,3.89218 1.16051,5.93597 -0.69608,2.69969 -2.9019,4.70816 -5.684,5.17548 -0.49397,0.083 -1.46291,0.10205 -1.95811,0.0385 z m 1.95799,-1.60783 c 2.18233,-0.47629 3.80784,-2.13001 4.27259,-4.34671 0.10356,-0.49396 0.094,-1.59237 -0.0184,-2.10198 -0.31837,-1.44416 -1.15317,-2.68124 -2.33498,-3.46016 -0.34285,-0.22596 -0.70933,-0.41326 -0.74135,-0.37889 -0.0145,0.0155 -0.29768,0.90066 -0.62932,1.96689 -0.7007,2.25279 -0.87251,2.76478 -1.0578,3.15229 -0.17687,0.3699 -0.28662,0.44302 -0.63881,0.42554 -0.31413,-0.0156 -0.50666,-0.14214 -0.62572,-0.4113 -0.16461,-0.37215 -0.11017,-0.59523 0.99043,-4.05829 0.29209,-0.91903 0.46696,-1.52732 0.44586,-1.55089 -0.021,-0.0234 -0.32231,-0.0378 -0.75976,-0.0364 -0.59508,0.002 -0.79602,0.0176 -1.12099,0.0877 -2.14486,0.46227 -3.76528,2.0893 -4.24625,4.26356 -0.12007,0.54276 -0.12007,1.64504 0,2.1878 0.24042,1.08682 0.73783,2.00222 1.50188,2.76392 0.86164,0.85899 1.95057,1.39941 3.16298,1.56974 0.39511,0.0555 1.39757,0.015 1.79963,-0.0728 z m 22.29396,-0.11632 c 2.18233,-0.47628 3.80784,-2.13 4.27258,-4.34671 0.10356,-0.49396 0.094,-1.59236 -0.0184,-2.10198 -0.47888,-2.17235 -2.1011,-3.80129 -4.24596,-4.26356 -0.57512,-0.12396 -1.65506,-0.12299 -2.23762,0.002 -0.22391,0.048 -0.42058,0.10059 -0.43703,0.11677 -0.0165,0.0162 0.4346,1.05757 1.00236,2.31419 1.59291,3.52559 1.50743,3.31772 1.50827,3.66802 8.6e-4,0.36139 -0.0684,0.47814 -0.35229,0.59413 -0.18389,0.0751 -0.27839,0.0775 -3.02987,0.0771 -1.56203,-2.4e-4 -2.84005,0.0143 -2.84005,0.0323 0,0.0892 0.22404,0.66726 0.37836,0.97625 0.52237,1.04596 1.40784,1.93871 2.43261,2.45261 0.54076,0.27118 1.17098,0.46791 1.7674,0.5517 0.39511,0.0555 1.39758,0.015 1.79964,-0.0728 z m -2.03554,-5.37258 c 0,-0.035 -2.02109,-4.49975 -2.05019,-4.52908 -0.0163,-0.0165 -0.14422,0.0568 -0.2842,0.16274 -1.29009,0.97662 -2.07523,2.41492 -2.18687,4.00611 l -0.0265,0.37803 h 2.27388 c 1.25065,0 2.2739,-0.008 2.2739,-0.0178 z m -6.05554,-0.55409 c 0.11665,-1.34632 0.56319,-2.53449 1.35878,-3.6155 0.42161,-0.57285 1.26437,-1.36806 1.77916,-1.67878 0.11195,-0.0676 0.20355,-0.13658 0.20355,-0.15335 0,-0.0424 -1.27727,-2.872 -1.31246,-2.90752 -0.0157,-0.0159 -0.78119,1.94697 -1.70105,4.36186 -0.91986,2.41489 -1.68429,4.42123 -1.69872,4.45855 -0.0244,0.063 0.0217,0.0679 0.64915,0.0679 h 0.67541 z m -1.15552,-4.36395 c 0.94279,-2.53345 1.7057,-4.61475 1.69535,-4.6251 -0.0104,-0.0103 -2.71121,-0.005 -6.00188,0.0118 l -5.98304,0.0306 3.71727,4.05169 c 2.0445,2.22843 3.96183,4.31789 4.26074,4.64326 0.35626,0.38781 0.55275,0.57478 0.57043,0.54281 0.0148,-0.0268 0.79834,-2.12159 1.74113,-4.65504 z"
       style="fill:#ffff00;stroke-width:0.85416675"
       inkscape:connector-curvature="0"
       inkscape:export-filename="/home/you/path4482.png"
       inkscape:export-xdpi="600"
       inkscape:export-ydpi="600" />
  </g>
</svg>
