<?xml version="1.0" encoding="UTF-8" standalone="no"?>
<!-- Created with Inkscape (http://www.inkscape.org/) -->

<svg
   xmlns:dc="http://purl.org/dc/elements/1.1/"
   xmlns:cc="http://creativecommons.org/ns#"
   xmlns:rdf="http://www.w3.org/1999/02/22-rdf-syntax-ns#"
   xmlns:svg="http://www.w3.org/2000/svg"
   xmlns="http://www.w3.org/2000/svg"
   xmlns:sodipodi="http://sodipodi.sourceforge.net/DTD/sodipodi-0.dtd"
   xmlns:inkscape="http://www.inkscape.org/namespaces/inkscape"
   id="svg4190"
   version="1.1"
   inkscape:version="0.92.3 (2405546, 2018-03-11)"
   width="31.370079"
   height="16.119352"
   viewBox="0 0 29.40945 15.111892"
   sodipodi:docname="bridge.svg"
   inkscape:export-filename="/home/you/Pictures/PCB/bridge.png"
   inkscape:export-xdpi="600"
   inkscape:export-ydpi="600">
  <metadata
     id="metadata4196">
    <rdf:RDF>
      <cc:Work
         rdf:about="">
        <dc:format>image/svg+xml</dc:format>
        <dc:type
           rdf:resource="http://purl.org/dc/dcmitype/StillImage" />
        <dc:title></dc:title>
      </cc:Work>
    </rdf:RDF>
  </metadata>
  <defs
     id="defs4194" />
  <sodipodi:namedview
     pagecolor="#ffffff"
     bordercolor="#666666"
     borderopacity="1"
     objecttolerance="10"
     gridtolerance="10"
     guidetolerance="10"
     inkscape:pageopacity="0"
     inkscape:pageshadow="2"
     inkscape:window-width="1920"
     inkscape:window-height="1144"
     id="namedview4192"
     showgrid="false"
     inkscape:zoom="21.613714"
     inkscape:cx="14.778349"
     inkscape:cy="17.879186"
     inkscape:window-x="0"
     inkscape:window-y="26"
     inkscape:window-maximized="1"
     inkscape:current-layer="svg4190"
     fit-margin-top="0"
     fit-margin-left="0"
     fit-margin-right="0"
     fit-margin-bottom="0" />
  <path
     style="fill:#fa0000;fill-opacity:1;stroke:#ff0000;stroke-width:0.1539579;stroke-miterlimit:4;stroke-dasharray:none;stroke-opacity:1"
     d="m 0.11463495,15.024143 c -0.00256,-0.0059 -0.011303,-0.16033 -0.019415,-0.343177 l -0.01475,-0.332459 h 0.4672031 0.46721015 l 0.024891,-0.182309 c 0.035258,-0.258263 0.5809304,-5.8113205 0.5809304,-5.9118736 0,-0.078682 -0.036153,-0.083047 -0.68636085,-0.083047 H 0.24798985 V 7.3991167 6.6269673 H 1.2517772 2.2555645 L 2.367283,6.2805981 C 2.7151038,5.2022423 3.4139374,4.2025484 4.4260212,3.3355145 7.3579791,0.82377241 12.374486,-0.38363855 17.292272,0.23876926 22.230586,0.86377751 26.09836,3.2393028 27.063085,6.2398432 l 0.117566,0.3656734 1.011568,0.011503 1.011561,0.011496 v 0.7713795 0.7713795 h -0.68636 c -0.683086,0 -0.686361,4.607e-4 -0.686684,0.096521 -4.2e-4,0.1239703 0.55099,5.7561714 0.581673,5.9412964 l 0.0231,0.139415 h 0.448483 0.448478 v 0.343185 0.343177 h -2.187769 -2.187773 v -0.343177 -0.343185 h 0.450424 c 0.247729,0 0.452157,-0.0048 0.454277,-0.01072 0.02114,-0.05879 0.615273,-6.1336456 0.601259,-6.147666 -0.01037,-0.010361 -2.505825,-0.018838 -5.54547,-0.018838 -5.150096,0 -5.526626,0.00494 -5.526626,0.072173 0,0.039691 0.0197,0.2375534 0.04378,0.4396985 0.02408,0.2021441 0.159593,1.5427185 0.301149,2.9790635 0.141555,1.436336 0.267775,2.628351 0.280482,2.648915 0.01271,0.02057 0.224661,0.0374 0.471001,0.0374 h 0.447892 v 0.343185 0.343177 h -2.209218 -2.209223 v -0.343177 -0.343185 h 0.451772 c 0.322366,0 0.457379,-0.01536 0.471365,-0.05361 0.01577,-0.04316 0.318141,-3.034684 0.536564,-5.3085634 0.02379,-0.2477354 0.05476,-0.5324627 0.06881,-0.6327332 L 14.070716,8.171309 H 8.5346057 c -3.044866,0 -5.5439695,0.014474 -5.5535735,0.032174 -0.0096,0.017691 0.1197401,1.4027438 0.2874313,3.077888 l 0.3048918,3.045725 0.4607432,0.01218 0.4607427,0.01218 v 0.341733 0.341725 H 2.3070655 c -1.2032761,0 -2.18987135,-0.0048 -2.19243055,-0.01073 z M 4.71886,5.245873 4.7069519,3.8647307 4.4043787,4.1626877 C 3.7911755,4.7665205 3.2486128,5.5965625 3.0115955,6.2934287 2.954412,6.4615464 2.9076304,6.6053651 2.9076304,6.6130291 c 0,0.00767 0.4102052,0.013945 0.9115727,0.013959 l 0.9115726,2.07e-5 z M 7.0382305,4.435603 V 2.3238206 L 6.7029758,2.5834994 C 6.2315256,2.9486703 5.7091889,3.052691 5.5468978,3.4944961 l 0.013513,0.1798406 V 5.150652 6.6269673 H 6.060596 7.0382305 Z M 9.2079795,4.2246058 C 9.2140405,3.4012452 9.1951835,2.5763766 9.1277675,1.7557584 8.6312363,1.9089816 8.4674969,2.1417404 8.1352032,2.2897558 8.0024088,2.8995024 8.0004588,3.660516 8.0142144,4.3939331 v 2.2330342 h 0.5344547 0.6593344 z m 2.1282155,0.632836 c 0.0023,-3.0421897 -0.0034,-3.95214569 -0.02492,-3.97369279 -0.03294,-0.032932 -0.08586,0.1048457 -0.778629,0.25559239 L 10.218207,1.2770236 V 3.951992 6.6269673 h 0.797034 0.319592 z M 13.902464,3.6670373 V 0.70711441 h 0.250443 c 0.452308,0 -1.516313,0.068253 -1.711317,0.1097714 l -0.09651,0.020556 v 2.89475909 2.894766 h 1.455077 0.102311 z m 2.567631,0.067758 V 0.84262311 l -0.117966,-0.02434 c -0.219301,-0.0452548 -0.584756,-0.1111687 -1.053356,-0.1111687 h -0.465648 v 2.95992289 2.95993 h 1.136785 0.500185 z m 2.763454,0.2192953 V 1.2812134 L 19.026354,1.1646722 C 18.48771,0.86170041 17.803189,0.87940811 17.645701,0.87898841 l -0.107246,-2.821e-4 0.01005,2.77761259 c 0.0055,1.5276855 0.01036,2.8210438 0.01073,2.874127 l 6.67e-4,0.096521 h 0.876609 0.797034 z m 2.39814,0.4338437 -0.01112,-2.2390332 0.03325,-0.1571585 C 21.315308,1.8458321 20.551088,1.4424033 20.282184,1.3774388 l -0.117972,-0.028496 v 2.6390085 2.6390155 h 0.739294 0.739288 z M 24.190351,5.146917 V 3.6668654 L 24.129267,3.3711097 C 24.102222,3.2401916 23.081078,2.666112 22.593367,2.4208941 l -0.02068,-0.1704292 v 2.1882477 2.1882547 h 0.818485 0.799176 z m 2.353789,1.4587721 c 0,-0.011702 -0.04132,-0.1420026 -0.09181,-0.2895571 C 26.223302,5.6469146 25.762868,4.9232868 25.162282,4.2886884 24.950349,4.0647493 24.920624,3.8815238 24.901712,3.8815238 c -0.03776,0 -0.04976,2.3815861 -0.01313,2.6060276 l 0.02275,0.1394159 h 0.736827 c 0.492788,0 0.895983,-0.00958 0.895983,-0.021279 z"
     id="path4200"
     inkscape:connector-curvature="0"
     sodipodi:nodetypes="cscccssscccccsssscccccscccccccccccsccsssscscccccccscsscscscccccscccscssccccsscccccccsccccccscscccccsccsccccccccccsccccccccsccsccccccccccccccccsssccccccscssscsscc" />
</svg>
