<?xml version="1.0" encoding="UTF-8" standalone="no"?>
<!-- Created with Inkscape (http://www.inkscape.org/) -->

<svg
   xmlns:dc="http://purl.org/dc/elements/1.1/"
   xmlns:cc="http://creativecommons.org/ns#"
   xmlns:rdf="http://www.w3.org/1999/02/22-rdf-syntax-ns#"
   xmlns:svg="http://www.w3.org/2000/svg"
   xmlns="http://www.w3.org/2000/svg"
   xmlns:sodipodi="http://sodipodi.sourceforge.net/DTD/sodipodi-0.dtd"
   xmlns:inkscape="http://www.inkscape.org/namespaces/inkscape"
   version="1.1"
   id="svg914"
   width="36.270565"
   height="45.354294"
   viewBox="0 0 36.270565 45.354294"
   sodipodi:docname="coffee.svg"
   inkscape:version="0.92.3 (2405546, 2018-03-11)">
  <metadata
     id="metadata920">
    <rdf:RDF>
      <cc:Work
         rdf:about="">
        <dc:format>image/svg+xml</dc:format>
        <dc:type
           rdf:resource="http://purl.org/dc/dcmitype/StillImage" />
        <dc:title></dc:title>
      </cc:Work>
    </rdf:RDF>
  </metadata>
  <defs
     id="defs918" />
  <sodipodi:namedview
     pagecolor="#ffffff"
     bordercolor="#666666"
     borderopacity="1"
     objecttolerance="10"
     gridtolerance="10"
     guidetolerance="10"
     inkscape:pageopacity="0"
     inkscape:pageshadow="2"
     inkscape:window-width="1920"
     inkscape:window-height="1143"
     id="namedview916"
     showgrid="false"
     fit-margin-top="0"
     fit-margin-left="0"
     fit-margin-right="0"
     fit-margin-bottom="0"
     inkscape:zoom="10.429825"
     inkscape:cx="50.992465"
     inkscape:cy="20.110173"
     inkscape:window-x="0"
     inkscape:window-y="27"
     inkscape:window-maximized="1"
     inkscape:current-layer="svg914" />
  <path
     style="fill:#000000;stroke-width:0.08934802"
     d="m 8.0239195,45.238462 c -0.54607,-0.16916 -1.27254,-0.82512 -1.45647,-1.31511 -0.11469,-0.30554 -4.33867,-29.71671 -4.33867,-30.20976 0,-0.13155 1.34884,-0.14374 15.9039505,-0.14374 13.43478,0 15.90395,0.0191 15.90395,0.12286 0,0.30612 -4.21591,29.88468 -4.29462,30.13078 -0.13441,0.42027 -0.67473,0.99673 -1.18797,1.26745 l -0.45906,0.24213 -9.82828,0.0169 c -8.3282405,0.0143 -9.8915505,-0.003 -10.2428305,-0.11152 z M 19.42045,35.236822 c 2.27973,-0.48295 4.34532,-2.5004 5.32206,-5.19801 0.35848,-0.99005 0.26998,-0.95997 2.97652,-1.01175 l 2.33508,-0.0447 0.37748,-2.54641 c 0.20761,-1.40053 0.37997,-2.61678 0.38302,-2.70278 0.005,-0.14551 -0.17764,-0.15636 -2.63467,-0.15636 -2.1443,0 -2.68775,-0.0246 -2.89337,-0.13092 -0.20009,-0.10347 -0.3213,-0.30674 -0.57807,-0.96942 -0.49541,-1.2786 -1.14614,-2.3073 -2.01902,-3.19177 -0.85366,-0.865 -1.65159,-1.37672 -2.73413,-1.75343 -0.62405,-0.21716 -0.83509,-0.2456 -1.82262,-0.2456 -0.98772,0 -1.1995,0.0285 -1.83164,0.24692 -1.01544,0.35078 -1.85073,0.87571 -2.63858,1.65816 -1.0013,0.99446 -1.61484,1.97105 -2.18154,3.47242 -0.3572,0.94634 -0.23566,0.91364 -3.3954605,0.91364 -2.45669,0 -2.63988,0.0109 -2.63554,0.15636 0.003,0.086 0.17345,1.30225 0.37973,2.70278 l 0.37507,2.54641 2.33836,0.0447 c 2.3148805,0.0442 2.3406605,0.0468 2.5658405,0.25854 0.12511,0.11763 0.29472,0.41917 0.37691,0.67011 0.84721,2.58659 3.06647,4.78876 5.31832,5.27737 0.75415,0.16364 1.85406,0.16521 2.61625,0.004 z m -2.27007,-4.56656 c -1.57433,-0.57148 -2.62173,-2.31995 -2.61677,-4.36832 0.003,-1.42742 0.459,-2.62072 1.3404,-3.5111 0.68786,-0.69487 1.30533,-0.9563 2.25872,-0.9563 0.63988,0 0.84117,0.0383 1.27848,0.24318 0.70584,0.33071 1.40659,1.06608 1.79143,1.87993 0.39809,0.84187 0.52409,1.41592 0.52106,2.37383 -0.006,1.84317 -0.83262,3.40967 -2.17815,4.12689 -0.48031,0.25602 -0.6701,0.30487 -1.2788,0.32915 -0.49888,0.0199 -0.83608,-0.0155 -1.11637,-0.11726 z M 0.45164953,11.658202 c -0.33856,-0.18765 -0.45012,-0.4879 -0.45162999582,-1.21553 C -0.00498047,7.9120119 0.95028953,5.7358419 2.3890595,5.0018419 c 0.91842,-0.46854 0.39463,-0.4534 15.7260305,-0.45482 15.89954,-10e-4 14.97703,-0.0371 15.99055,0.61794 1.12223,0.72534 1.74138,1.8857 2.02947,3.80347 0.25597,1.7040101 0.15516,2.4758901 -0.35365,2.7077201 -0.3623,0.16507 -35.03137047,0.14746 -35.32981047,-0.0179 z M 4.8619195,2.3392719 c 0.13334,-0.71079 0.70549,-1.49947 1.39736,-1.92618 0.70985,-0.43781 0.43564,-0.42864 12.0575105,-0.40321 l 10.85042,0.0238 0.53609,0.25037 c 0.89369,0.4174 1.5394,1.19794 1.70024,2.05527 l 0.0619,0.33012 H 18.1327 4.7999595 Z"
     id="path924"
     inkscape:connector-curvature="0" />
</svg>
