<?xml version="1.0" encoding="UTF-8" standalone="no"?>
<!-- Created with Inkscape (http://www.inkscape.org/) -->

<svg
   xmlns:dc="http://purl.org/dc/elements/1.1/"
   xmlns:cc="http://creativecommons.org/ns#"
   xmlns:rdf="http://www.w3.org/1999/02/22-rdf-syntax-ns#"
   xmlns:svg="http://www.w3.org/2000/svg"
   xmlns="http://www.w3.org/2000/svg"
   xmlns:sodipodi="http://sodipodi.sourceforge.net/DTD/sodipodi-0.dtd"
   xmlns:inkscape="http://www.inkscape.org/namespaces/inkscape"
   width="7.4999995mm"
   height="5.6914296mm"
   viewBox="0 0 26.574802 20.166483"
   id="svg5159"
   version="1.1"
   inkscape:version="0.92.3 (2405546, 2018-03-11)"
   sodipodi:docname="donut.svg"
   inkscape:export-filename="/home/you/Pictures/PCB/donut.png"
   inkscape:export-xdpi="600"
   inkscape:export-ydpi="600">
  <defs
     id="defs5161" />
  <sodipodi:namedview
     id="base"
     pagecolor="#ffffff"
     bordercolor="#666666"
     borderopacity="1.0"
     inkscape:pageopacity="0.0"
     inkscape:pageshadow="2"
     inkscape:zoom="11.2"
     inkscape:cx="7.4153338"
     inkscape:cy="-8.0658819"
     inkscape:document-units="px"
     inkscape:current-layer="layer1"
     showgrid="false"
     fit-margin-top="0"
     fit-margin-left="0"
     fit-margin-right="0"
     fit-margin-bottom="0"
     inkscape:window-width="1920"
     inkscape:window-height="1144"
     inkscape:window-x="0"
     inkscape:window-y="26"
     inkscape:window-maximized="1" />
  <metadata
     id="metadata5164">
    <rdf:RDF>
      <cc:Work
         rdf:about="">
        <dc:format>image/svg+xml</dc:format>
        <dc:type
           rdf:resource="http://purl.org/dc/dcmitype/StillImage" />
        <dc:title></dc:title>
      </cc:Work>
    </rdf:RDF>
  </metadata>
  <g
     inkscape:label="Layer 1"
     inkscape:groupmode="layer"
     id="layer1"
     transform="translate(-234.2242,-461.95865)">
    <path
       style="fill:#fe0000;fill-opacity:1;stroke:#ff0000;stroke-width:0.13628106;stroke-miterlimit:4;stroke-dasharray:none;stroke-opacity:1"
       d="m 245.08463,481.97479 c -1.09194,-0.14712 -2.78085,-0.58664 -3.8212,-0.99439 -4.42734,-1.73533 -6.97109,-4.98772 -6.97109,-8.91313 0,-4.17644 2.84223,-7.56043 7.71978,-9.19121 1.86056,-0.62207 3.33181,-0.84927 5.49948,-0.84927 2.16767,0 3.63892,0.2272 5.49948,0.84927 4.87755,1.63078 7.71978,5.01477 7.71978,9.19121 0,4.74784 -3.6585,8.4194 -9.67816,9.71269 -1.16164,0.24958 -4.70351,0.36519 -5.96807,0.19483 z m 0.8478,-5.62155 c 1.28522,-0.4594 1.79675,-0.44625 2.84735,-0.0289 0.42897,0.17042 0.95071,0.28707 1.13159,0.28707 0.18315,0 0.8114,-0.21752 1.44624,-0.51943 l 1.1401,-0.5422 1.34895,-0.0133 c 1.87318,-0.0186 1.9282,-0.0362 2.4321,-0.77816 0.50816,-0.74831 1.0941,-1.14204 2.04705,-1.37558 0.50384,-0.12347 0.79026,-0.25996 0.99589,-0.47461 0.26716,-0.27885 0.2875,-0.35862 0.27296,-1.0709 -0.0397,-1.94544 -0.78607,-3.78701 -2.33894,-5.32469 -1.59755,-1.5819 -3.78686,-2.84112 -6.64585,-3.45171 -1.57138,-0.3356 -4.62516,-0.29008 -6.19654,0.0456 -3.64472,0.77841 -6.4456,2.5343 -7.97158,4.87185 -0.516,0.79045 -0.83877,1.84675 -0.97109,3.17797 -0.0851,0.8567 0.12297,1.34195 0.64136,1.69102 0.23877,0.16078 0.68666,0.60884 0.9953,0.99567 0.30865,0.38684 0.72841,0.98881 0.93279,1.11512 0.34038,0.21037 0.45145,0.22376 1.32135,0.15936 1.06182,-0.0786 1.18616,-0.0356 2.80857,0.97324 1.49696,0.93075 2.581,1.44138 3.73965,0.28547 z m 2.79266,-0.78287 c -0.11435,-0.0666 -0.18073,-0.23044 -0.18073,-0.4461 0,-0.31327 0.0716,-0.38847 0.88577,-0.93029 0.92926,-0.61842 1.39735,-0.72255 1.62345,-0.36118 0.22693,0.36268 -0.007,0.67993 -0.934,1.27175 -0.93143,0.59406 -1.08581,0.64561 -1.39449,0.46582 z m -5.34451,-1.21387 c -0.84606,-0.5193 -0.98483,-0.64368 -1.00802,-0.90351 -0.0668,-0.74857 0.43747,-0.77861 1.57604,-0.0939 1.06891,0.64283 1.18766,0.7507 1.18766,1.07882 0,0.7051 -0.51294,0.68131 -1.75568,-0.0815 z m 2.89172,-1.83769 c -0.47597,-0.0917 -1.2866,-0.37464 -1.7777,-0.62054 -1.09661,-0.54908 -1.73368,-1.46913 -1.73368,-2.50382 0,-1.81382 2.00931,-3.14327 4.75068,-3.14327 1.67715,0 2.93325,0.41693 3.87701,1.28685 1.44013,1.32746 1.05923,3.38504 -0.80247,4.3348 -0.96561,0.49261 -1.53907,0.62743 -2.81635,0.66209 -0.68162,0.0184 -1.35549,0.0113 -1.49749,-0.0161 z m 7.58843,-0.27891 c -1.17283,-0.41225 -1.18536,-0.42126 -1.18536,-0.85257 0,-0.58311 0.29641,-0.61977 1.56275,-0.19331 0.58205,0.19602 1.09524,0.4146 1.1404,0.48573 0.1527,0.24049 0.0865,0.58152 -0.14424,0.74314 -0.29035,0.20336 -0.26472,0.20678 -1.37355,-0.18299 z m -14.78557,-0.28769 c -0.98632,-0.31388 -1.1561,-0.46766 -1.01324,-0.9178 0.13069,-0.41176 0.38255,-0.42896 1.5142,-0.10343 1.28768,0.37041 1.52595,0.5981 1.16509,1.11332 -0.20935,0.29887 -0.48547,0.28361 -1.66605,-0.0921 z m 16.14825,-2.49264 c -0.38444,-0.88693 -0.79235,-2.01943 -0.79235,-2.19975 0,-0.31462 0.23491,-0.47979 0.62691,-0.44082 0.31602,0.0314 0.34819,0.0781 0.72968,1.06032 0.42328,1.08975 0.47469,1.38589 0.27517,1.58541 -0.16324,0.16322 -0.76803,0.1595 -0.83941,-0.006 z m -17.50232,-0.92432 c -0.19935,-0.19934 -0.14363,-0.64864 0.10843,-0.87427 0.49296,-0.44129 1.49078,-1.06731 1.70116,-1.06731 0.29378,0 0.54509,0.26577 0.54509,0.57646 0,0.196 -0.1873,0.38907 -0.8445,0.87047 -0.84526,0.61914 -1.25235,0.75249 -1.51018,0.49465 z m 4.45914,-2.23253 c -0.62671,-0.84954 -0.73082,-1.09503 -0.52765,-1.4051 0.1754,-0.2677 0.46903,-0.38852 0.725,-0.18345 0.29719,0.23812 1.03715,1.40604 1.03715,1.65192 0,0.32289 -0.11568,0.5821 -0.46895,0.5821 -0.23536,0 -0.37833,-0.12055 -0.76555,-0.64547 z m 7.91326,-0.63853 c -0.45954,-0.45953 -0.13243,-0.82877 1.05684,-1.19293 1.01145,-0.30973 1.38401,-0.28444 1.48061,0.1005 0.11583,0.46148 -0.10509,0.65137 -1.14572,0.98472 -0.53961,0.17286 -1.02702,0.31427 -1.08315,0.31427 -0.056,0 -0.19499,-0.0929 -0.30858,-0.20656 z m -4.25733,-0.88636 c -0.95811,-0.17463 -1.19682,-0.42791 -0.91031,-0.96328 0.0717,-0.13392 0.13667,-0.0745 0.35924,-0.0745 0.31565,1e-5 1.76466,0.17779 2.14881,0.29756 0.23367,0.0728 0.33388,0.41147 0.18612,0.68753 -0.13861,0.25901 -0.65217,0.27354 -1.86355,0.0528 z"
       id="path5232"
       inkscape:connector-curvature="0"
       sodipodi:nodetypes="sssssssssccsscsssssssssssssssscsssscscssscsssssscssssssssssscsssscsssssssssssscsssscscsccscccc"
       inkscape:export-filename="/home/you/Pictures/PCB/donut.png"
       inkscape:export-xdpi="600"
       inkscape:export-ydpi="600" />
  </g>
</svg>
