<?xml version="1.0" encoding="UTF-8" standalone="no"?>
<!-- Created with Inkscape (http://www.inkscape.org/) -->

<svg
   xmlns:dc="http://purl.org/dc/elements/1.1/"
   xmlns:cc="http://creativecommons.org/ns#"
   xmlns:rdf="http://www.w3.org/1999/02/22-rdf-syntax-ns#"
   xmlns:svg="http://www.w3.org/2000/svg"
   xmlns="http://www.w3.org/2000/svg"
   xmlns:sodipodi="http://sodipodi.sourceforge.net/DTD/sodipodi-0.dtd"
   xmlns:inkscape="http://www.inkscape.org/namespaces/inkscape"
   width="13.99999mm"
   height="13.010079mm"
   viewBox="0 0 49.606265 46.098706"
   id="svg2"
   version="1.1"
   inkscape:version="0.92.3 (2405546, 2018-03-11)"
   sodipodi:docname="heart.svg">
  <defs
     id="defs4" />
  <sodipodi:namedview
     id="base"
     pagecolor="#ffffff"
     bordercolor="#666666"
     borderopacity="1.0"
     inkscape:pageopacity="0.0"
     inkscape:pageshadow="2"
     inkscape:zoom="3.959798"
     inkscape:cx="-40.766585"
     inkscape:cy="19.701173"
     inkscape:document-units="px"
     inkscape:current-layer="layer1"
     showgrid="false"
     inkscape:window-width="1920"
     inkscape:window-height="1144"
     inkscape:window-x="0"
     inkscape:window-y="26"
     inkscape:window-maximized="1"
     fit-margin-top="0"
     fit-margin-left="0"
     fit-margin-right="0"
     fit-margin-bottom="0" />
  <metadata
     id="metadata7">
    <rdf:RDF>
      <cc:Work
         rdf:about="">
        <dc:format>image/svg+xml</dc:format>
        <dc:type
           rdf:resource="http://purl.org/dc/dcmitype/StillImage" />
        <dc:title></dc:title>
      </cc:Work>
    </rdf:RDF>
  </metadata>
  <g
     inkscape:label="Layer 1"
     inkscape:groupmode="layer"
     id="layer1"
     transform="translate(-333.22784,-475.12393)">
    <path
       style="fill:#fd0000;fill-opacity:1;stroke:#f80000;stroke-width:0.04130374;stroke-miterlimit:4;stroke-dasharray:none;stroke-opacity:1"
       d="m 357.05659,520.27139 c -2.61968,-3.63611 -5.59712,-6.72915 -11.36466,-11.80582 -5.61601,-4.94333 -7.64771,-7.04807 -9.42145,-9.76017 -1.54062,-2.35567 -2.45342,-4.74611 -2.8753,-7.52977 -0.17669,-1.16591 -0.19795,-3.79211 -0.0383,-4.71491 0.34673,-2.00268 0.96615,-3.64455 1.94712,-5.16109 3.30805,-5.11416 9.42536,-7.33897 15.22439,-5.53692 0.8941,0.27781 2.66432,1.14931 3.47455,1.71053 1.30215,0.90196 2.59482,2.21 3.466,3.50726 0.26741,0.39818 0.5139,0.724 0.54774,0.724 0.0338,0 0.28034,-0.32582 0.54775,-0.724 0.8712,-1.29726 2.16385,-2.6053 3.46602,-3.50726 0.81021,-0.56122 2.58043,-1.43272 3.47456,-1.71053 2.42298,-0.75295 4.92391,-0.81406 7.40225,-0.18085 2.49917,0.63851 4.97583,2.18628 6.67433,4.17106 1.03689,1.21164 1.81092,2.51306 2.36608,3.97815 1.63367,4.3113 0.92351,9.71392 -1.86336,14.17537 -1.7776,2.84578 -3.82934,4.9951 -10.15633,10.63954 -5.35957,4.78134 -8.37485,7.98948 -10.83463,11.52761 -0.75559,1.08686 -0.79518,1.12839 -1.07544,1.12839 -0.27586,0 -0.32583,-0.0484 -0.96143,-0.93059 z"
       id="path4225"
       inkscape:connector-curvature="0"
       sodipodi:nodetypes="cccsccsccsccscccsscsc"
       inkscape:export-filename="/home/you/Pictures/PCB/heart.png"
       inkscape:export-xdpi="600"
       inkscape:export-ydpi="600" />
  </g>
</svg>
