<?xml version="1.0" encoding="UTF-8" standalone="no"?>
<!-- Generator: Adobe Illustrator 19.0.0, SVG Export Plug-In . SVG Version: 6.00 Build 0)  -->

<svg
   xmlns:dc="http://purl.org/dc/elements/1.1/"
   xmlns:cc="http://creativecommons.org/ns#"
   xmlns:rdf="http://www.w3.org/1999/02/22-rdf-syntax-ns#"
   xmlns:svg="http://www.w3.org/2000/svg"
   xmlns="http://www.w3.org/2000/svg"
   xmlns:sodipodi="http://sodipodi.sourceforge.net/DTD/sodipodi-0.dtd"
   xmlns:inkscape="http://www.inkscape.org/namespaces/inkscape"
   version="1.1"
   id="Layer_1"
   x="0px"
   y="0px"
   viewBox="0 0 45.354326 45.354684"
   xml:space="preserve"
   sodipodi:docname="open-book.svg"
   inkscape:version="0.92.3 (2405546, 2018-03-11)"
   width="45.354328"
   height="45.354687"><metadata
   id="metadata65"><rdf:RDF><cc:Work
       rdf:about=""><dc:format>image/svg+xml</dc:format><dc:type
         rdf:resource="http://purl.org/dc/dcmitype/StillImage" /><dc:title /></cc:Work></rdf:RDF></metadata><defs
   id="defs63" /><sodipodi:namedview
   pagecolor="#ffffff"
   bordercolor="#666666"
   borderopacity="1"
   objecttolerance="10"
   gridtolerance="10"
   guidetolerance="10"
   inkscape:pageopacity="0"
   inkscape:pageshadow="2"
   inkscape:window-width="1920"
   inkscape:window-height="1143"
   id="namedview61"
   showgrid="false"
   inkscape:zoom="9.2913406"
   inkscape:cx="-0.67559921"
   inkscape:cy="1.0902159"
   inkscape:window-x="0"
   inkscape:window-y="27"
   inkscape:window-maximized="1"
   inkscape:current-layer="Layer_1"
   fit-margin-top="0"
   fit-margin-left="0"
   fit-margin-right="0"
   fit-margin-bottom="0" />
<g
   id="g28"
   transform="translate(-233.32534,-233.32512)">
	<g
   id="g26">
		<g
   id="g24">
			
			
			
			
			
			
			
			
			
			
			<g
   id="g854"><g
     id="g867"
     transform="matrix(0.0885825,0,0,0.0885825,233.32516,233.32513)"><g
       id="g880"><g
         id="g886"><g
           id="g3727"
           transform="matrix(0.83333337,0,0,0.83333337,42.667073,42.667068)"><path
             transform="matrix(11.288911,0,0,11.288911,0.002032,-1.1288911e-4)"
             style="stroke-width:0.0885825"
             d="m 33.332031,8.3183594 c -0.09794,-0.00932 -0.200439,-1.304e-4 -0.300781,0.03125 -2.31156,0.7309828 -6.730528,2.9770396 -6.917969,3.0722656 -0.371869,0.188946 -0.519024,0.642958 -0.330078,1.015625 0.13376,0.261496 0.398691,0.414063 0.673828,0.414062 0.114892,0 0.234085,-0.02809 0.34375,-0.08398 0.04456,-0.02268 4.493135,-2.281451 6.6875,-2.9746092 C 33.885928,9.6667387 34.106699,9.2413083 33.980469,8.84375 33.886328,8.5455149 33.625857,8.3463293 33.332031,8.3183594 Z m 0,4.5351566 c -0.09794,-0.0093 -0.200439,-1.31e-4 -0.300781,0.03125 -2.31156,0.730982 -6.730528,2.977039 -6.917969,3.072265 -0.371958,0.188947 -0.519024,0.643047 -0.330078,1.015625 0.13376,0.261584 0.398691,0.414063 0.673828,0.414063 0.114892,0 0.234085,-0.02614 0.34375,-0.08203 0.04456,-0.02268 4.493135,-2.283405 6.6875,-2.976563 0.397647,-0.12623 0.618418,-0.55166 0.492188,-0.949219 -0.09414,-0.298235 -0.354612,-0.49742 -0.648438,-0.52539 z m -18.548828,0.759765 c -3.471443,-0.06682 -6.4968408,0.730612 -6.6640624,0.775391 -0.4028732,0.108071 -0.6432269,0.522111 -0.5351562,0.925781 0.090708,0.337854 0.3970442,0.560547 0.7304687,0.560547 0.06502,0 0.1314489,-0.008 0.1972657,-0.02539 0.050669,-0.01435 5.1559082,-1.358741 9.4570312,-0.349609 0.404379,0.09452 0.81493,-0.157771 0.910156,-0.564453 0.09514,-0.405885 -0.157771,-0.811024 -0.564453,-0.90625 -1.166919,-0.273831 -2.374102,-0.393741 -3.53125,-0.416016 z m 18.548828,3.775391 c -0.09794,-0.0093 -0.200439,0.0018 -0.300781,0.0332 -2.31156,0.730983 -6.730528,2.975086 -6.917969,3.070313 -0.371958,0.188946 -0.519024,0.645 -0.330078,1.017578 0.13376,0.261584 0.398691,0.412109 0.673828,0.412109 0.114892,0 0.234085,-0.02614 0.34375,-0.08203 0.04456,-0.02268 4.493135,-2.283405 6.6875,-2.976563 0.397647,-0.12623 0.618418,-0.55166 0.492188,-0.949219 -0.09414,-0.298235 -0.354612,-0.49742 -0.648438,-0.52539 z m -18.548828,0.761719 c -3.471443,-0.06671 -6.4968408,0.728659 -6.6640624,0.773437 -0.4028732,0.108071 -0.6432269,0.5222 -0.5351562,0.925781 0.090708,0.337854 0.3970442,0.560547 0.7304687,0.560547 0.06502,0 0.1314489,-0.008 0.1972657,-0.02539 0.050669,-0.01435 5.1559082,-1.358742 9.4570312,-0.34961 0.404379,0.09452 0.81493,-0.155817 0.910156,-0.5625 0.09514,-0.405885 -0.157771,-0.812977 -0.564453,-0.908203 -1.166919,-0.273631 -2.374102,-0.391825 -3.53125,-0.414062 z m 18.548828,3.773437 c -0.09794,-0.0093 -0.200439,0.0018 -0.300781,0.0332 -2.31156,0.730983 -6.730528,2.975087 -6.917969,3.070313 -0.371958,0.188946 -0.519024,0.645 -0.330078,1.017578 0.13376,0.261584 0.398691,0.412109 0.673828,0.412109 0.114892,0 0.234085,-0.02614 0.34375,-0.08203 0.04456,-0.02268 4.493135,-2.283404 6.6875,-2.976562 0.397647,-0.126231 0.618418,-0.551661 0.492188,-0.949219 -0.09414,-0.298235 -0.354612,-0.497421 -0.648438,-0.525391 z m -18.548828,0.761719 c -3.471443,-0.0669 -6.4968408,0.728061 -6.6640624,0.773437 -0.4028732,0.108071 -0.6432269,0.5222 -0.5351562,0.925782 0.090708,0.337853 0.3970442,0.560547 0.7304687,0.560546 0.06502,0 0.1314489,-0.0079 0.1972657,-0.02539 0.050669,-0.01435 5.1559082,-1.358741 9.4570312,-0.34961 0.404379,0.09452 0.81493,-0.155817 0.910156,-0.5625 0.09514,-0.405885 -0.157771,-0.812976 -0.564453,-0.908203 -1.166919,-0.273631 -2.374102,-0.391763 -3.53125,-0.414062 z m 18.548828,3.775391 c -0.09794,-0.0093 -0.200439,-1.31e-4 -0.300781,0.03125 -2.31156,0.730982 -6.730528,2.975086 -6.917969,3.070312 -0.371958,0.188946 -0.519024,0.645 -0.330078,1.017578 0.13376,0.261584 0.398691,0.412109 0.673828,0.41211 0.114892,0 0.234085,-0.02614 0.34375,-0.08203 0.04456,-0.02268 4.493135,-2.283404 6.6875,-2.976562 0.397647,-0.12623 0.618418,-0.551661 0.492188,-0.949219 -0.09414,-0.298169 -0.354612,-0.495447 -0.648438,-0.523437 z m -18.548828,0.759765 c -3.471443,-0.06701 -6.4968408,0.728061 -6.6640624,0.773438 -0.4028732,0.10807 -0.6432269,0.522199 -0.5351562,0.925781 0.090708,0.337854 0.3970442,0.560547 0.7304687,0.560547 0.06502,0 0.1314489,-0.0079 0.1972657,-0.02539 0.050669,-0.01435 5.1559082,-1.356788 9.4570312,-0.347656 0.404379,0.09452 0.81493,-0.157771 0.910156,-0.564453 0.09514,-0.405885 -0.157771,-0.812977 -0.564453,-0.908203 -1.166919,-0.273831 -2.374102,-0.391726 -3.53125,-0.414063 z m 0,4.535156 c -3.471443,-0.06682 -6.4968408,0.728659 -6.6640624,0.773438 -0.4028732,0.108071 -0.6432269,0.522199 -0.5351562,0.925781 0.090708,0.337854 0.3970442,0.5625 0.7304687,0.5625 0.06502,0 0.1314489,-0.0099 0.1972657,-0.02734 0.050669,-0.01435 5.1559082,-1.356788 9.4570312,-0.347656 0.404379,0.09372 0.81493,-0.157771 0.910156,-0.564453 0.09514,-0.405885 -0.157771,-0.812977 -0.564453,-0.908203 -1.166919,-0.273831 -2.374102,-0.391788 -3.53125,-0.414063 z"
             id="path2"
             inkscape:connector-curvature="0" /><path
             inkscape:connector-curvature="0"
             id="path6"
             d="m 503.469,128.004 c -4.719,0 -8.533,3.823 -8.533,8.533 v 332.8 c 0,14.114 -11.486,25.6 -25.6,25.6 h -204.8 v -19.635 c 12.442,-4.352 44.851,-14.498 76.8,-14.498 74.334,0 124.809,16.461 125.312,16.631 2.568,0.853 5.436,0.427 7.68,-1.178 2.227,-1.604 3.541,-4.181 3.541,-6.921 V 93.871 c 0,-4.002 -2.773,-7.467 -6.682,-8.329 0,0 -6.69,-1.493 -18.125,-3.593 -4.617,-0.853 -9.079,2.219 -9.933,6.844 -0.853,4.642 2.21,9.088 6.844,9.941 4.361,0.802 8.013,1.51 10.829,2.074 v 357.188 c -19.337,-5.069 -62.276,-14.259 -119.467,-14.259 -37.18,0 -73.702,12.211 -85.001,16.35 -10.044,-4.437 -40.405,-16.35 -77.133,-16.35 -58.778,0 -107.196,9.694 -128,14.618 v -357.88 c 17.041,-4.19 67.371,-15.138 128,-15.138 31.113,0 57.796,9.685 68.267,14.063 v 335.804 c 0,3.072 1.655,5.914 4.326,7.424 2.671,1.519 5.965,1.476 8.602,-0.111 0.845,-0.503 85.393,-51.004 160.435,-76.015 3.49,-1.169 5.837,-4.42 5.837,-8.098 V 8.537 c 0,-2.799 -1.374,-5.419 -3.678,-7.014 -2.287,-1.596 -5.222,-1.963 -7.859,-0.981 -68.275,25.608 -137.36,68.599 -138.052,69.026 -3.994,2.5 -5.214,7.765 -2.714,11.759 2.492,3.994 7.757,5.214 11.759,2.714 0.631,-0.401 60.732,-37.794 123.477,-63.027 v 331.281 c -58.249,20.241 -119.066,53.291 -145.067,68.087 V 93.871 c 0,-3.234 -1.826,-6.187 -4.719,-7.637 -1.468,-0.725 -36.437,-17.963 -80.614,-17.963 -77.107,0 -136.388,16.683 -138.88,17.399 -3.661,1.041 -6.187,4.395 -6.187,8.201 v 375.467 c 0,2.671 1.263,5.197 3.388,6.81 1.502,1.135 3.311,1.724 5.146,1.724 0.785,0 1.57,-0.111 2.338,-0.333 0.589,-0.162 59.597,-16.734 134.195,-16.734 31.198,0 57.856,9.711 68.267,14.071 v 20.062 h -204.8 c -14.114,0 -25.6,-11.486 -25.6,-25.6 v -332.8 c 0,-4.71 -3.823,-8.533 -8.533,-8.533 -4.71,0 -8.533,3.823 -8.533,8.533 v 332.8 c 0,23.526 19.14,42.667 42.667,42.667 h 426.667 c 23.526,0 42.667,-19.14 42.667,-42.667 v -332.8 c -0.001,-4.711 -3.815,-8.534 -8.534,-8.534 z" /></g></g></g></g></g>
		</g>
	</g>
</g>
<g
   id="g30"
   transform="translate(-233.32534,-233.32512)">
</g>
<g
   id="g32"
   transform="translate(-233.32534,-233.32512)">
</g>
<g
   id="g34"
   transform="translate(-233.32534,-233.32512)">
</g>
<g
   id="g36"
   transform="translate(-233.32534,-233.32512)">
</g>
<g
   id="g38"
   transform="translate(-233.32534,-233.32512)">
</g>
<g
   id="g40"
   transform="translate(-233.32534,-233.32512)">
</g>
<g
   id="g42"
   transform="translate(-233.32534,-233.32512)">
</g>
<g
   id="g44"
   transform="translate(-233.32534,-233.32512)">
</g>
<g
   id="g46"
   transform="translate(-233.32534,-233.32512)">
</g>
<g
   id="g48"
   transform="translate(-233.32534,-233.32512)">
</g>
<g
   id="g50"
   transform="translate(-233.32534,-233.32512)">
</g>
<g
   id="g52"
   transform="translate(-233.32534,-233.32512)">
</g>
<g
   id="g54"
   transform="translate(-233.32534,-233.32512)">
</g>
<g
   id="g56"
   transform="translate(-233.32534,-233.32512)">
</g>
<g
   id="g58"
   transform="translate(-233.32534,-233.32512)">
</g>
</svg>